<?xml version="1.0" encoding="UTF-8"?>
<svg id="_Слой_1" data-name="Слой_1" xmlns="http://www.w3.org/2000/svg" version="1.1" viewBox="0 0 48 48">
  <!-- Generator: Adobe Illustrator 29.4.0, SVG Export Plug-In . SVG Version: 2.1.0 Build 152)  -->
  <defs>
    <style>
      .st0 {
        fill: #d85c4a;
      }

      .st1 {
        fill: #fcfcfc;
      }

      .st2 {
        fill: #100604;
      }

      .st3 {
        fill: #fff;
        stroke: #1d1d1b;
        stroke-miterlimit: 10;
      }

      .st4 {
        fill: #1d1d1b;
      }
    </style>
  </defs>
  <g>
    <rect class="st0" x="3.36" y="3.3" width="41.41" height="41.41" rx="12.11" ry="12.11" transform="translate(-8.78 15.25) rotate(-30)"/>
    <path class="st2" d="M8.66,17.79c.08-.11.07-.38.23-.41.12-.03.82-.02.86.01.05.04.17.95.31,1.26.4.88,1.67,1.82,2.65,1.83.32,0,.97-.46,1.6-.51,1.47-.13,4.82-.16,6.26,0,.51.06.76.34,1.1.4.68.12,1.97-.29,2.45-.8s.8-2.1.9-2.17c.08-.05.89-.04.93,0,.06.05-.03.32,0,.4.04,1.34-.7,2.59-1.86,3.24-.48.27-.97.33-1.4.64.28.42.46.9.7,1.34.07.13.23.19.25.22.04.07-.04.37,0,.41.11.1,1.91-.94,2.28-1.05,2.81-.81,6.16.88,3.43,3.71-1.54,1.59-3.47,1.41-5.44.88-.08.7-.06,1.55-.15,2.23-.21,1.45-.97,3.78-.77,5.15.07.44.32.89.37,1.39.22,2.28-.86,3.84-3.19,4.02-1.21.09-5.2.15-6.15-.25-.43-.18-1.29-.94-1.52-1.34-.77-1.31-.2-2.67-.29-4.06-.17-2.39-1.32-4.71-1.09-7.14-2.12.61-4.34.7-5.84-1.16-2.4-2.96,1.2-4.18,3.71-3.3.41.14,1.86,1.05,2.15.86.13-.08.09-.29.13-.35.31-.5.62-.99.81-1.56-.46-.33-.97-.4-1.48-.7-1.17-.69-1.79-1.85-1.92-3.18ZM22.66,24.45c.15-.18-1.29-3.07-1.86-3.23l-6.63-.02c-.99.16-1.55,2.44-1.98,3.25,3.34.98,2.75,5.64,3.41,8.37,0,.6-.98.67-1.43,1.16-1.4,1.51-1.43,4.53,1.21,4.76,1.24.11,3.67.12,4.9,0,2.49-.25,2.39-3.42,1.03-4.83-.52-.54-1.25-.41-1.5-1.08.45-2.68-.23-7.17,2.85-8.37Z"/>
    <path class="st1" d="M11.24,23.23c-2.51-.4-4.13-3.26-2.58-5.44.12,1.33.75,2.49,1.92,3.18.51.3,1.02.37,1.48.7-.19.56-.5,1.06-.81,1.56Z"/>
    <path class="st1" d="M23.62,23.23s-.18-.1-.25-.22c-.24-.44-.42-.92-.7-1.34.43-.31.92-.37,1.4-.64,1.17-.65,1.91-1.9,1.86-3.24.11.24.37.48.47.82.68,2.12-.66,4.18-2.79,4.62Z"/>
    <path class="st1" d="M22.66,24.45c-3.09,1.2-2.4,5.68-2.85,8.37.26.67.98.54,1.5,1.08,1.36,1.41,1.46,4.58-1.03,4.83-1.23.12-3.65.11-4.9,0-2.64-.22-2.61-3.24-1.21-4.76.45-.49,1.43-.55,1.43-1.16-.66-2.73-.07-7.39-3.41-8.37.43-.81,1-3.1,1.98-3.25l6.63.02c.58.16,2.02,3.06,1.86,3.23ZM20.73,34.83c-.61-.63-2.07,1.14-1.19,1.67s1.84-.99,1.19-1.67ZM15,34.81c-.52.18-.23,1.56.56,1.73,1.57.33.7-2.15-.56-1.73Z"/>
    <path class="st2" d="M20.73,34.83c.65.68-.35,2.18-1.19,1.67s.58-2.3,1.19-1.67Z"/>
    <path class="st2" d="M15,34.81c1.26-.43,2.13,2.05.56,1.73-.79-.16-1.08-1.55-.56-1.73Z"/>
  </g>
  <g>
    <path class="st3" d="M34.55,21.2h-5.67v-5.67c0-3.13,2.54-5.67,5.67-5.67h0c3.13,0,5.67,2.54,5.67,5.67h0c0,3.13-2.54,5.67-5.67,5.67Z"/>
    <circle class="st4" cx="31.48" cy="15.53" r=".78"/>
    <circle class="st4" cx="37.62" cy="15.53" r=".78"/>
    <circle class="st4" cx="34.69" cy="15.53" r=".78"/>
  </g>
</svg>