<?xml version="1.0" encoding="UTF-8"?>
<svg id="_Слой_1" xmlns="http://www.w3.org/2000/svg" version="1.1" viewBox="0 0 253 178.89">
  <!-- Generator: Adobe Illustrator 29.4.0, SVG Export Plug-In . SVG Version: 2.1.0 Build 152)  -->
  <defs>
    <style>
      .st0 {
        fill: #d85c4a;
      }

      .st0, .st1, .st2, .st3 {
        stroke: #1d1d1b;
      }

      .st0, .st1, .st3 {
        stroke-miterlimit: 10;
        stroke-width: 1px;
      }

      .st4 {
        fill: #f0f0ef;
      }

      .st5 {
        fill: #ffcf62;
      }

      .st6 {
        fill: #fbfbfb;
      }

      .st7 {
        fill: #040303;
      }

      .st8, .st9, .st10 {
        isolation: isolate;
      }

      .st9 {
        font-size: 25.68px;
      }

      .st9, .st1, .st10 {
        fill: #fff;
      }

      .st9, .st10 {
        font-family: SegoeScript, 'Segoe Script';
      }

      .st11 {
        fill: #0b0b0b;
      }

      .st12 {
        fill: #2a2929;
      }

      .st13 {
        fill: #fafafa;
      }

      .st10 {
        font-size: 24.62px;
      }

      .st2 {
        fill: #121212;
        stroke-miterlimit: 10;
      }

      .st14 {
        fill: #dfdfde;
      }

      .st3 {
        fill: #f7a548;
      }
    </style>
  </defs>
  <rect class="st2" width="253" height="178.89"/>
  <rect class="st1" x="142.39" y="15.95" width="83.18" height="83.18" rx="12.78" ry="12.78" transform="translate(13.2 146.94) rotate(-45)"/>
  <g>
    <path class="st6" d="M180.77,54.24c-.29-2.12-2.27-4.83-2.55-6.69-.35-2.32,1.23-5.35.24-7.81l17.47.11c.54.38-.34,4.57-.02,5.53-.87-.08-2.83.43-3.31,1.18-.54.85-.05,1.87-.42,2.66-.16.34-1.09,1.26-1.45,1.89-.54.93-3.55,6.43-3.55,6.98v13.74h-6.42v-17.59h0Z"/>
    <g>
      <path class="st13" d="M201.05,53.85l-.26,27.22-11.4-2.02c-.27-5.86-.16-11.75-.14-17.62,0-.54-.27-1.04-.27-1.53.02-2.5,2.31-5.01,3.1-7.32l8.97,1.28h0Z"/>
      <path class="st6" d="M206.66,52.86c.26.16,2.5,4.93,2.58,5.51l.02,18.46-.67.86-5.99,3.12c.27-7.24-.36-14.75-.01-21.96.04-.84.35-4.81.78-5.13.18-.14,3.12-.99,3.31-.86h0Z"/>
      <path class="st4" d="M194.39,49.22c-.09-.1-.06-1.56.1-1.8.38-.55,5.02-.8,5.91-.75.64.03,3.83.46,3.97.92.55,1.83-2.53,2.06-3.71,2.15-.84.06-5.92-.16-6.27-.52Z"/>
      <path class="st14" d="M205.39,50.53s.33.94.28,1.01c-4.16,1.56-8.61.4-12.84-.25-.1-.67.12-.53.65-.52,2.66.03,5.21.78,8.2.52.63-.06,3.55-.87,3.71-.76h0Z"/>
    </g>
    <g>
      <path class="st4" d="M198.99,36.4c-.02.77-.59,1.44-1.33,1.63-6.49.35-13.63.85-20.11.43-.81-.05-4.29-.49-4.82-.77-.37-.2-.43-.77-.45-1.15,1.22-.13,2.5.33,3.71.39,5.7.28,12.79.24,18.51,0,1.44-.06,3.04-.37,4.48-.52h0Z"/>
      <path class="st4" d="M198.22,35.11c-1.52.11-3.23.45-4.74.52-4.72.24-10.7.22-15.43,0-1.15-.05-3.63-.21-4.62-.52-.36-.12-.46.15-.37-.52,5.1-.6,10.38-.91,15.54-.78,2.31.06,6.01.13,8.18.55.49.09,1.25.18,1.44.74h0Z"/>
      <path class="st14" d="M187.18,74.39h-6.42c-.05,0-.05-1.03,0-1.03h6.04c.27,0,.49.73.39,1.03h0Z"/>
      <rect class="st14" x="180.77" y="75.68" width="6.42" height=".77"/>
    </g>
    <g>
      <path class="st11" d="M170.75,37.68c-.5-2.27-.62-3.72,1.8-4.49,4.23-1.34,21.32-1.43,25.53-.12,2.48.78,2.99,2.06,2.4,4.68-.31,1.38-2.26,1.78-2.47,2.41-.36,1.06.18,3.47-.05,4.71,1.85.03,8.22.07,8.47,2.46.06.6-.28,1.17-.13,1.63.17.5,1.91,2.7,2.39,3.53.92,1.6,2.47,4.05,2.63,5.84.25,2.93.02,7,0,10.01-.01,1.99.35,8.69-.51,9.97-.38.56-7.82,4.68-8.63,4.79-.43.06-.81.02-1.23-.02-2.43-.18-10.16-1.52-12.37-2.27s-1.07-2.51-1.4-2.84c-.22-.22-5.42.17-6.27,0-.23,1.89-.74,3.76-2.64,4.57-2.77,1.19-14.93,1.29-17.55-.06-.86-.44-2.04-1.68-2.24-2.64l-.06-25.1c.11-2.19,2.35-5.33,2.51-7.25.09-1.07-.47-3.87-.46-5.59,0-.43-.28-.84-.25-1.27.05-.95,1.31-1.92,2.16-2.21s3.77-.76,4.64-.76h3.74ZM198.22,35.11c-.19-.55-.95-.65-1.44-.74-2.17-.42-5.87-.5-8.18-.55-5.17-.13-10.44.18-15.54.78-.07.67.01.4.37.52.99.31,3.48.46,4.62.52,4.73.22,10.7.24,15.43,0,1.5-.07,3.22-.42,4.74-.52h0ZM198.99,36.4c-1.44.16-3.04.46-4.48.52-5.72.24-12.8.28-18.51,0-1.21-.06-2.49-.52-3.71-.39.02.38.08.96.45,1.15.52.28,4.01.71,4.82.77,6.49.43,13.62-.08,20.11-.43.73-.18,1.3-.85,1.33-1.63h0ZM176.91,40.76c.87-.81-3.4-1.27-3.71-1.29-1.54-.1-9.85-.05-10.67.78-.3.31.02.46.32.58.88.36,4.57.67,5.71.71,2.86.11,5.55-.36,8.35-.78h0ZM180.77,54.24v17.59h6.42v-13.74c0-.55,3.02-6.04,3.55-6.98.36-.63,1.3-1.55,1.45-1.89.36-.8-.13-1.81.42-2.66.48-.76,2.44-1.26,3.31-1.18-.32-.96.56-5.15.02-5.53l-17.47-.11c.99,2.47-.59,5.49-.24,7.81.28,1.87,2.27,4.58,2.55,6.69h0ZM176.91,42.3c-.12-.13-2.85.49-3.45.52-3.67.2-7.43.02-11.05-.52-.22,0-.17.52-.13.65.29.91,9.11.99,10.41.91.86-.06,3.04-.32,3.79-.58.46-.17.61-.8.44-.97h0ZM163.82,54.62c1.34.12,3.81-.47,5.26-.54l9.63,1.05c-.29-3.54-3.22-6.28-2.31-10.01-4.6.7-9.01.59-13.61,0,.62,3.64-1.78,6.6-2.31,10.01.35-.21,1.7-.2,1.79-.26.07-.05-.05-.43,0-.51.33-.45,1.17.22,1.54.26h0ZM194.39,49.22c.35.37,5.44.58,6.27.52,1.18-.08,4.26-.32,3.71-2.15-.14-.46-3.33-.89-3.97-.92-.9-.05-5.53.2-5.91.75-.16.24-.19,1.7-.1,1.8ZM205.39,50.53c-.16-.12-3.07.7-3.71.76-2.99.27-5.55-.48-8.2-.52-.53,0-.75-.15-.65.52,4.23.65,8.68,1.82,12.84.25.05-.07-.23-.97-.28-1.01h0ZM201.05,53.85l-8.97-1.28c-.78,2.3-3.08,4.81-3.1,7.32,0,.49.27.99.27,1.53-.02,5.87-.13,11.77.14,17.62l11.4,2.02.26-27.22h0ZM206.66,52.86c-.19-.12-3.13.73-3.31.86-.43.32-.74,4.29-.78,5.13-.35,7.21.28,14.72.01,21.96l5.99-3.12.67-.86-.02-18.46c-.08-.58-2.32-5.35-2.58-5.51h0ZM177.17,56.68c-3.99-.75-8.69-1.21-12.71-.52-1.11.19-1.26.86-.25,1.03,3.42.58,8.55.35,12.04-.02.25-.02.97-.12.92-.49h0ZM162.02,58.48l-1.8-.26v20.41c0,.24.62,1.64.85,1.84,1.4,1.3,9.97,1.26,12.12,1.12,1.26-.08,4.75-.42,5.32-1.61.07-.14.45-1.52.45-1.61v-20.15c-5.04,1.09-10.29.91-15.4.51v6.29c0,.51-1.54.51-1.54,0v-6.55h0ZM187.18,74.39c.1-.3-.12-1.03-.39-1.03h-6.04c-.05,0-.05,1.03,0,1.03h6.42ZM187.18,75.68h-6.42v.77h6.42v-.77Z"/>
      <path class="st13" d="M162.02,58.48v6.55c0,.51,1.54.51,1.54,0v-6.29c5.11.4,10.37.58,15.4-.51v20.15c0,.08-.38,1.46-.45,1.61-.57,1.2-4.06,1.53-5.32,1.61-2.16.14-10.72.18-12.12-1.12-.22-.21-.85-1.61-.85-1.84v-20.41l1.8.26h0ZM162.02,69.64c-.31,1.02,0,6.17,0,7.7,0,.06.6.7.86.62.14-.02.68-.58.68-.62v-7.7c0-.42-1.35-.62-1.54,0h0Z"/>
      <path class="st13" d="M162.28,54.37c-.06.07.07.46,0,.51-.09.06-1.44.05-1.79.26.53-3.41,2.92-6.38,2.31-10.01,4.61.59,9.01.7,13.61,0-.92,3.72,2.02,6.47,2.31,10.01l-9.63-1.05c-1.45.06-3.93.65-5.26.54-.34-1.04.85-2.81-.39-3.09-1.07-.24-1.1,2.06-1.15,2.83h0Z"/>
      <path class="st4" d="M176.91,40.76c-2.8.42-5.49.89-8.35.78-1.14-.04-4.83-.35-5.71-.71-.29-.12-.61-.27-.32-.58.81-.83,9.13-.89,10.67-.78.31.02,4.58.48,3.71,1.29h0Z"/>
      <path class="st4" d="M177.17,56.68c.05.37-.67.46-.92.49-3.49.37-8.62.6-12.04.02-1.01-.17-.85-.84.25-1.03,4.02-.7,8.72-.23,12.71.52h0Z"/>
      <path class="st14" d="M176.91,42.3c.17.17.02.81-.44.97-.74.27-2.92.52-3.79.58-1.3.09-10.12,0-10.41-.91-.04-.12-.09-.65.13-.65,3.61.54,7.38.73,11.05.52.61-.03,3.33-.65,3.45-.52h0Z"/>
      <path d="M163.82,54.62c-.37-.03-1.21-.7-1.54-.26.06-.77.07-3.07,1.15-2.83,1.25.28.05,2.05.39,3.09h0Z"/>
      <path class="st11" d="M162.02,69.64c.18-.62,1.54-.42,1.54,0v7.7s-.54.59-.68.62c-.27.08-.86-.55-.86-.62,0-1.53-.31-6.68,0-7.7h0Z"/>
    </g>
  </g>
  <rect class="st3" x="86.73" y="81.2" width="83.18" height="83.18" rx="12.7" ry="12.7" transform="translate(-49.24 126.7) rotate(-45)"/>
  <g>
    <path class="st7" d="M102.53,141.83c-.43-.54-.58-2.02-.63-2.74-.35-5.23-.44-13.99,0-19.16.07-.82.24-1.63.58-2.39l11.01-8.41c1.3-.42,4,3.5,4.74.45.29-1.2.36-2.27.42-3.41.06-1.23,11.21-8.86,12.82-10.31.8-.45,1.01-.65,1.98-.48,8.38,1.53,21.96,10.79,22.65,19.96.35,4.63.32,12.07-.01,16.72-.13,1.8-.26,4.51-2.58,4.69l-47.68,5.68c-.94.05-2.65.18-3.29-.61h0ZM152.58,112.26c.5-.49-3.08-4.8-3.63-5.39-4.08-4.37-10.16-7.51-15.87-9.09-4.15,2.29-7.8,6.26-11.78,8.66-.36.21-.21,4-2.41,5.41-1.06.68-3.1.63-3.78-.51-.31-.5-1.35.5-1.35.5l-7.25,5.55,46.09-5.12h0ZM153.66,114.42c-11.92.88-23.76,2.65-35.66,3.82-1.52,2.63-3.41,4.15-6.66,3.33-1.5-.38-2.7-2.26-2.88-2.31-1.04-.27-2.68.57-3.85.27-.25,5.34-.36,10.69-.28,16.05.01.58.29,1.12.29,1.62.01.89-.48,1.85-.28,2.82,2.39,0,4.77-.29,7.14-.55,12.72-1.35,26.16-2.74,38.78-4.61.81-.12,3.41-.23,3.41-1.18v-19.27h0Z"/>
    <path class="st5" d="M153.66,114.42v19.27c0,.95-2.59,1.06-3.41,1.18-12.61,1.88-26.06,3.26-38.78,4.61-2.37.25-4.75.55-7.14.55-.2-.97,0-3.85-.01-4.44-.08-5.36.03-10.71.28-16.05,1.18.3,2.81-.54,3.85-.27.18.05,1.37,1.92,2.88,2.31,3.25.82,5.14-.69,6.66-3.33,11.9-1.17,23.74-2.94,35.66-3.82h0ZM120.8,126.94c0-1.41-1.14-2.55-2.55-2.55s-2.55,1.14-2.55,2.55,1.14,2.55,2.55,2.55,2.55-1.14,2.55-2.55ZM129.73,132.53c-.08.09-.43,1.48-.07,1.71,4.92.76,7.48-5.85,3.23-8.62-3.26-2.12-8.59,1.27-7,4.05.18.32,2.5,2.25,2.7,2.01.09-1.45-1.15-2.64,0-3.91,2.25-2.5,6.17,1.95,2.79,4.14-.44.28-1.6.57-1.65.63h0Z"/>
    <path class="st5" d="M152.58,112.26l-46.09,5.12,7.25-5.55s1.05-1,1.35-.5c.69,1.14,2.73,1.19,3.78.51,2.2-1.41,2.05-5.19,2.41-5.41,3.98-2.39,7.63-6.36,11.78-8.66,5.71,1.58,11.8,4.72,15.87,9.09.56.6,4.14,4.9,3.63,5.39h0Z"/>
    <path class="st11" d="M129.73,132.53c.06-.07,1.22-.35,1.65-.63,3.38-2.19-.54-6.64-2.79-4.14-1.15,1.27.1,2.47,0,3.91-.21.24-2.52-1.68-2.7-2.01-1.59-2.77,3.75-6.17,7-4.05,4.25,2.77,1.68,9.38-3.23,8.62-.36-.22-.01-1.61.07-1.71h0Z"/>
    <circle class="st11" cx="118.25" cy="126.94" r="2.55"/>
  </g>
  <g class="st8">
    <text class="st9" transform="translate(15.29 143.95) rotate(-16.71)"><tspan x="0" y="0">Жив</tspan></text>
  </g>
  <g class="st8">
    <text class="st10" transform="translate(184.93 126.94) rotate(11.51)"><tspan x="0" y="0">двор</tspan></text>
  </g>
  <rect class="st0" x="30.86" y="15.99" width="83.18" height="83.18" rx="12.75" ry="12.75" transform="translate(-19.49 68.09) rotate(-45)"/>
  <g>
    <path d="M55.88,27.08c.48-.37,1.48-.92,2.04-.55.27.18,1.13,4.18,3.14,5.59.81.57,4.13,1.86,5.03,1.77.6-.06,1.25-.86,1.93-1.04,1.97-.52,17.02-.32,18.96.31.73.24.73.8,1.83.69,2.17-.21,4.88-1.59,6.02-3.49.47-.79,1.21-3.47,1.61-3.72,1.14-.69,1.53.22,2.08.74.1,3.22-1.78,6.2-4.54,7.75-1.27.71-2.52.92-3.75,1.59-.05.24,2.02,3.89,2.37,4.28.14.16.22.37.36.53,2.06-.49,4.07-1.81,6.22-2.39,5.87-1.58,14.33,1.26,8.81,8.22-3.53,4.44-9.88,4.29-14.79,2.53.05,2.12-.08,4.26-.3,6.36-.35,3.37-1.68,8.19-1.66,11.3.02,2.03,1.32,4.44,1.3,6.76-.05,6.96-5.9,9.25-12.03,8.49-1.08,1.56-6.54,14.27-7.34,14.41-1.34.24-7.45-4.61-8.7-5.72-2.74-2.44-4.8-5.25-7.1-7.85,1.98-2.38,4.18-7.69,1.91-10.35s-4.31,2.17-7.05,2.05c-2.02-.09-3.93-2.1-4.27-4.05-.65-3.83,3.72-9.46,3.18-13.69-4.05,1.45-7.46,2.35-11.84,2.07-1.29-.08-2.63-.11-3.76-.81-.31-.19-.52.01-.37-.67,6.29-.05,13.4-1.6,18.95-4.58,1.01-.54,2.93-1.44,3.25-2.53h-4.29c-.88,0-3.87-1.27-4.69-1.83-3.29-2.24-6.27-7.56-1.29-9.78,5.29-2.35,9.93.45,14.57,2.71.3.07.34-1.29.44-1.47.03-.07.4-.21.54-.48.33-.62,1.93-3.47,1.52-3.94-4.6-.78-8.86-4.13-8.28-9.19h0ZM90.19,43.64c.54-.62-2.95-6.83-3.8-7.54-.42-.35-.89-.55-1.42-.65-2.18-.39-12.78-.4-15.01-.05-2.42.38-4.92,6.07-5.49,8.27,4.53.61,6.25,5.14,7.02,9.11.59,3.06,1.38,7.82,1.56,10.87s-.85,1.86-2.76,3.15c-4.24,2.88-5.15,12.37,2.01,12.98,2.82.24,12.22.32,14.59-.54,4.33-1.56,3-9.85-.07-12.2-2.31-1.78-3.32-.12-3.12-4.01.21-4.12.44-12.3,2.32-15.74.78-1.44,2.5-3.38,4.17-3.67v.02Z"/>
    <path class="st6" d="M39.31,59.65c4.38.28,7.78-.62,11.84-2.07.54,4.23-3.83,9.86-3.18,13.69.33,1.94,2.25,3.95,4.27,4.05,2.74.13,4.73-4.77,7.05-2.05s.06,7.97-1.91,10.35c-1.21-1.37-4.16-3.37-5.63-4.88-5.24-5.36-9.76-12.08-12.42-19.11h0Z"/>
    <path class="st6" d="M55.88,27.08c-.58,5.06,3.68,8.41,8.28,9.19.4.47-1.19,3.33-1.52,3.94-.14.27-.51.42-.54.48-6.19-.65-9.79-7.1-6.96-12.74.27-.52.31-.54.74-.88h0Z"/>
    <path class="st6" d="M92.59,41c-.35-.4-2.42-4.05-2.37-4.28,1.23-.67,2.47-.87,3.75-1.59,2.76-1.55,4.64-4.53,4.54-7.75,3.15,3.03,1.56,9.01-1.63,11.55-1.25,1-2.93,1.29-4.29,2.07h0Z"/>
    <path class="st6" d="M90.19,43.64c-1.68.29-3.39,2.23-4.17,3.67-1.88,3.43-2.1,11.62-2.32,15.74-.2,3.9.81,2.24,3.12,4.01,3.07,2.35,4.4,10.65.07,12.2-2.36.85-11.75.78-14.59.54-7.16-.62-6.25-10.11-2.01-12.98,1.9-1.29,2.93-.17,2.76-3.15s-.97-7.81-1.56-10.87c-.77-3.97-2.49-8.51-7.02-9.11.58-2.2,3.07-7.89,5.49-8.27,2.23-.35,12.83-.34,15.01.05.53.1,1,.31,1.42.65.85.7,4.34,6.92,3.8,7.54v-.02ZM71.78,69.76c-2.33.71,0,5.6,2.75,4.24,1.76-.87-.65-4.89-2.75-4.24ZM84.22,69.76c-1.36.4-3.08,3.76-1.19,4.33,3.19.96,4.39-5.29,1.19-4.33Z"/>
    <path class="st12" d="M71.78,69.76c2.11-.64,4.52,3.38,2.75,4.24-2.75,1.35-5.08-3.53-2.75-4.24Z"/>
    <path class="st12" d="M84.22,69.76c3.2-.95,2,5.29-1.19,4.33-1.9-.57-.17-3.93,1.19-4.33Z"/>
  </g>
</svg>