<?xml version="1.0" encoding="UTF-8"?>
<svg id="_Слой_1" data-name="Слой_1" xmlns="http://www.w3.org/2000/svg" version="1.1" viewBox="0 0 841.89 595.28">
  <!-- Generator: Adobe Illustrator 29.4.0, SVG Export Plug-In . SVG Version: 2.1.0 Build 152)  -->
  <defs>
    <style>
      .st0 {
        fill: #cae3cd;
      }

      .st1 {
        fill: #c69267;
      }

      .st2, .st3 {
        fill: #fbf1dd;
      }

      .st4 {
        fill: #f3a79b;
      }

      .st5 {
        fill: #afd0e3;
      }

      .st6 {
        fill: #f7beb3;
      }

      .st7 {
        fill: #8dac92;
      }

      .st8, .st9 {
        fill: #4a88c0;
      }

      .st10 {
        fill: #6f4e34;
      }

      .st11, .st12 {
        fill: #0f110f;
      }

      .st13 {
        fill: #e8b27a;
      }

      .st9, .st3, .st12 {
        fill-rule: evenodd;
      }

      .st14 {
        fill: #15825b;
      }

      .st15 {
        fill: #b07f56;
      }

      .st16 {
        fill: #f2c491;
      }

      .st17 {
        fill: #3d73a3;
      }

      .st18 {
        fill: #156f4d;
      }
    </style>
  </defs>
  <g>
    <path class="st7" d="M336.37,275.4c.4,4.29.18,5.49,4.84,6.55,3.55.81,8.16,1.04,11.74.5.85-.13,3.77-.69,4.25-1.17.77-.77.11-3.47-.28-4.4,2.65.02,15.91,1.96,17.02,3.72.98,1.55-3.03,2.65-4.16,2.98-9.36,2.73-21.62,2.67-31.38,3-15.22.51-35,1.01-49.89-2.03-3.45-.71-12.23-2.57-4.55-5.32,5.03-1.8,11.58-2.12,16.89-2.73-.21,1.48-.87,4.58.27,5.62,2.34,2.14,17.16,3.23,18.61.74.77-1.32.3-5.84.55-7.48h16.07Z"/>
    <path class="st7" d="M333.38,458.52c.08,1.84-.24,4.18,1.51,5.4,2.48,1.72,10.18,2.26,13.25,2.07,1.13-.07,5.13-.59,5.92-1.09,1.4-.89.01-4.09-.5-5.26,4.97.95,14.38.92,18.57,3.66,2.52,1.65-2.42,3.04-3.84,3.41-14.22,3.68-37.37,3.44-52.31,3.04-9.14-.25-21.79-.59-30.52-2.74-1.21-.3-6.39-1.51-5.11-3.58.99-1.6,16-3.5,18.64-3.78-.09.61-.43,3.92-.38,4.28.25,1.92,4.33,2.52,5.86,2.77,2.8.45,11.2.82,13.22-1.23,1.04-1.06.91-5.26,1.1-6.93h14.58Z"/>
    <path class="st7" d="M516.13,458.52c.29,1.46.37,6.17,1.11,6.93,4.54,1.86,9.69,2.23,14.45.97,4.5-1.19,4.1-2.48,3.5-6.78,2.54.1,5.09.43,7.6.81,2.74.41,18.74,2.64,9.14,6.02-6.06,2.13-12.86,2.09-19.16,2.51-18.18,1.21-46.65,2.38-64.03-2.12-1.17-.3-5.41-1.17-4.9-2.88.62-2.08,16.04-4.25,18.66-3.97-.47,1.28-1.82,4.28-.49,5.26,2.59,1.91,17.55,1.5,19.58-1.31.87-1.21.58-4.01.72-5.45h13.83Z"/>
    <path class="st7" d="M330.39,310.15c-.12,0-.25,0-.37,0l.19-.37.19.37Z"/>
    <path class="st0" d="M320.3,275.4c.22-1.44,1.23-1.08,2.07-1.86,1.34-1.23,1.96-5.81,2.72-7.75,1.1-2.81,3.2-5.72,4.35-8.6.47.23,1.48.11,1.75.49.73,1.01.52,5.62,1.68,7.06-1.06,1.77,0,6.96,1.62,8.25,1.46,1.16,1.66-.02,1.89,2.41h-16.07Z"/>
    <path class="st0" d="M502.3,458.52c.2-2.06,1.04-1.21,2.04-2.26,1.9-2.01.95-5.7,1.05-7.92.03-.61,1.28-6.39,1.47-6.75.44-.82,2.23-.94,2.59-.41.28.42,1.22,4.15,1.54,5.11.29.87,1.03,1.75,1.23,2.5.61,2.28.21,6.07,2.22,7.87,1.24,1.12,1.3-.14,1.69,1.86h-13.83Z"/>
    <path class="st0" d="M318.8,458.52c.2-1.78.43-.84,1.32-1.84,2.22-2.49,1.69-5.08,2.59-7.88.49-1.52,1.71-3.43,2.35-5.13.89-2.37.02-3.67,3.41-3.05.02,2.37,1.48,5.25,1.7,7.38s-.51,5.73,1.31,7.73c1.44,1.58,1.75-.31,1.88,2.79h-14.58Z"/>
  </g>
  <g>
    <path class="st11" d="M300.86,276.52c.1-.72.81-2.08.67-2.77-.13-.63-1.06-.76-1.43-1.25-1.28-1.7-1.61-6.29-.4-8.11-1.2-2.22-.53-10.16-1.42-11.55-.08-.13-2.36-1.64-2.51-1.67-.35-.07-2,.62-2.92.69-5.33.37-10.23-3.52-10.58-8.92-.09-1.39.58-2.66.21-3.91-.15-.51-1.43-1.83-1.85-2.63-1.62-3.07-2.53-5.81-2.14-9.37.19-1.69,2.19-5.64,2.12-6.34-.05-.54-1.9-3.17-2.28-4.43-.98-3.24-.82-6.82.31-10.01.61-1.74,3.29-5.01,3.48-5.89s-.79-2.37-.96-3.36c-.72-4.06-.1-8,1.78-11.68-6.34-1.69-11.18-7.1-13.09-13.27-6.12-19.79,13.4-40.01,33.26-32.33.84-3.08,1.85-9.13,4.6-10.91,4.95-3.2,21.94-5.23,27.64-3.95,4.49,1.01,7.29,8.71,10,12.08,10.61-3.37,21.15-.58,27.81,8.42,6.6,8.91,8.15,23.27-.78,31.3-3.88,3.49-7.85,3.77-12.83,4.18l.18,1.12c1.52,1.59,3.18,3.57,4.24,5.48.77,1.38-.2,1.93,2.02,1.53,1.73-.31,9.62-5.26,10.94-6.62,3.41-3.51,2.62-5.01,3.2-9.14.47-3.39,3.81-4.08,6.44-2.4,1.21.13,1.93,3.6,2.67,3.3,1.92-.77,3.12-4.6,7.09-4.87,4.87-.33,3.85,3.1,4.75,3.7.74.49,3.62.02,4.6,2.31.63,1.47-.24,2.66-.09,3.5.1.54,1.57,1.63,1.76,3.07.23,1.72-.5,3.42-1.67,4.63-3.67,3.8-10.44,6.82-14.57,10.1-4.6,3.65-9.34,9.12-14.04,12.87-1.32,1.06-7.85,4.03-8.11,4.41-.21.3-.24,1.58-.54,2.26-.41.95-2.13,3.63-2.13,4.19,0,.76,1.18,2.37,1.49,3.35,1.53,4.77.3,10.42-3.19,14.04-1.11,1.16-3.1,1.88-3.74,2.62-.16.19-2.19,4.18-2.24,4.43-.23,1.08.59,3.37.58,4.72-.02,5.14-1.25,11.07-1.94,16.03-.25,1.83-.78,5.29-2.01,6.6-.29.3-.91.32-.94.36-.13.17,1.68,3.33,1.93,3.87.16.34.65.54.68.61.4.92,1.05,3.63.28,4.4-.48.48-3.4,1.04-4.25,1.17-3.59.53-8.19.31-11.74-.5-4.67-1.07-4.45-2.27-4.84-6.55-.22-2.43-.43-1.25-1.89-2.41-1.61-1.29-2.67-6.48-1.62-8.25-1.17-1.43-.96-6.04-1.68-7.06-.27-.38-1.28-.26-1.75-.49-1.15,2.89-3.25,5.8-4.35,8.6-.76,1.94-1.38,6.51-2.72,7.75-.84.77-1.85.41-2.07,1.86-.25,1.64.22,6.16-.55,7.48-1.45,2.49-16.27,1.41-18.61-.74-1.14-1.04-.48-4.15-.27-5.62ZM322.17,127.78c-2.88.08-7.3,1.02-10.09,1.87-.79.24-2.25.65-2.89,1.04-2.09,1.26-2.75,7.48-3.69,9.78-.03.86,2.55,1.72,3.21,2.26s1.78,2.62,2.43,2.66c11.01-2.21,22.17-4.53,33.45-4.53.25-.19-2.03-3.05-2.24-3.36-.14-.21.12-1.33-.75-1.49-.75-1.54-4.19-7.68-5.34-8.33-1.7-.96-7.61-.76-9.81-.65-1.23.06-3.11.36-4.28.76ZM353.56,138.62c-1.33.04-5.19.39-6.13,1.09-.32.24-.33,1.05-.23,1.15.23.24,5.64-.07,6.73,0,1.01.07,1.99.25,2.99.37,1.44.17,5.02.4,5.97,1.31,1,.96,1.27,5.22.53,6.5-1.27,2.21-4.79,2.41-5.38,3.03-.76.79,2.43,1.74,2.62,1.86.49.34,1.29,1.05,1.87,1.49,1.32,1.02,5.01,3.82,5.98,4.86.2.22,1.43,2.06,1.49,2.24.95,2.67-.33,5.57-2.62,7.1-.33.22-1.93,1.04-2.24,1.12-2.18.6-4.49.31-6.73.38l1.14,6.33c1.75.07,7.6.39,7.83-1.85,1.33.23,2.1-.69,2.99-1.49,3.66-3.32,4.36-6.53,4.86-11.21.1-.94.46-1.63.37-2.99-.31-4.72-2.13-7.9-4.48-11.59-.43-.67-.4-.95-1.12-1.87-3.32-4.2-7.94-7.25-13.45-7.85-.89-.1-2.06-.03-2.99,0ZM291.52,141.23c-6.65.97-11.45,4.29-15.32,9.72-.77,1.08-1.28,1.74-1.87,2.99-2.11,4.47-2.84,8.66-2.24,13.45.11.91.16,1.33.37,2.24,1.1,4.71,2.46,7.45,6.35,10.46,1.21.93,1.2.9,2.62,1.49,5.67,2.37,11.18,1.2,13.82-4.67-3.09-1.68-6.32.32-9.71-2.05-.09-.06-1.43-1.41-1.49-1.49-.83-1.13-1.72-3.46-1.87-4.86-.07-.63-.06-1.6,0-2.24.16-1.8.91-4.08,1.87-5.61.08-.13,1.41-1.79,1.49-1.87,1.17-1.09,4.42-2.76,5.98-2.99.79-.11,2.14-.05,2.99,0,1.49.08,2.7.31,4.11.75.53.16,1.09,1.06,2.24,1.12.63.03,6-1.13,6.63-1.41,3.21-1.43,3.14-5.61,1.79-8.31-.64-1.28-1.43-1.74-2.43-2.61s-1.42-1.23-2.62-1.87c-2.02-1.07-4.8-2.19-7.1-2.24-1.64-.91-3.88-.25-5.61,0ZM361.4,145.34c.1-.5-.16-.87-.54-1.14-.57-.41-8.33-1.06-9.72-1.12-8.37-.35-17.43.66-25.69,1.99-4.37.71-8.71,1.72-13.01,2.7l.56,3.16c15.82-3.7,32.12-5.63,48.4-5.6ZM361.4,147.59h-4.86s.38,2.61.38,2.61c.34.31,4.8-1.19,4.48-2.61ZM353.93,147.96c-5.64.08-11.34.52-16.96,1.17-3.16.37-22.69,3.18-23.96,4.45-1.18,1.19-2,4.53-4.3,5.41,3.22,3.06,7.77,1.96,10.85-.73.74-.64.77-1.86,2.02-1.72.75.08,2.25,1.73,3.07,2.2,5.04,2.89,11.98,2.93,15.61-2.2.8-1.14,1.62-4.87,3.58-2.79.78.83-.27,2.28,1.75,2.72,5.36,1.19,9.54-3.18,8.33-8.51ZM356.17,165.52c.37.75.6,2.31,1.37,2.56,6.61,1.04,14.69-2.67,5.85-8.09-1.22-.75-7.46-3.65-8.44-3.38-.66.18-1.43,1.59-2.51,1.45-.3,1.07,1.33,1.92,1.49,2.24.69,1.34,1.44,3.6,2.24,5.23ZM355.05,171.88c-.63-2.28-1.22-4.43-2.18-6.61-.55-1.25-2.81-6-3.99-6.11-.68-.06-1.52.42-2.55.35-1.14-.07-2.44-.97-3.12-1.04-.36-.03-3.59,2.96-4.59,3.5-4.49,2.43-9.72,2.21-14.24,0-.78-.38-1.79-1.58-2.47-1.64-.45-.04-3.87,2.67-5.43,3.04-2.76.66-6.24.24-8.65-1.3-.96-.61-2.16-2.56-2.33-2.58-.41-.03-4.76,1.65-5.47,2-3.19,1.58-12.72,8.77-6.1,11.49,4.39,1.8,10.23-.12,13.43-3.42.98-1.02,2.1-4.07,3.7-2.97,2.36,1.62-1.78,4.79-2.16,5.64-.83,1.82.88,8.6,1.67,10.65,7.94,20.66,45.63,19.94,45.98-3.18.04-2.92-.76-5.16-1.49-7.85ZM297.12,159.18c-.44-.48-4.5-.47-5.38-.35-4.38.61-7.06,5.53-6.58,9.69,4.72.59,3.36-.57,5.24-3.18,1.56-2.17,4.21-3.72,6.25-5.31.26-.2,1.01-.26.47-.85ZM288.49,169.3c-.29-.25-2.33.09-2.95-.04.04,2.23,2.27,3.68,4.11,4.48-.5-.7-.98-4.3-1.15-4.45ZM396.06,171.95c-.93.2-6.37,5.02-6.57,5.8-.36,1.38,3.16,3.57,1.23,6.8-.52.88-1.98,1.85-2.36.54-.23-.77.57-2.2.26-3.6-.22-.99-1.33-1.82-1.68-2.81-.47-1.29-.53-6.85-3.25-6.04-.8.24-.68,4.63-1.08,6.04-.34,1.19-2.25,3.98-2.06,4.91.14.69,8.44,10.55,9.13,10.66,3.97-2.51,8.06-5.04,11.69-8.03.94-.77,4.19-2.95,3.23-4.28-1.18-1.63-5.54,3.04-7.13,2.99-1.18-.04-1.67-1.47-.95-2.44.33-.45,9.29-5.36,5.76-6.48-2.13-.68-8.38,5.97-9.43,1.95-.38-1.46,4.64-3.08,5.13-4.85.36-1.3-.98-1.38-1.92-1.18ZM312.06,191.67c.44-.64-1.67-2.78-2.15-3.61-2.46-4.2-3.8-8.71-4.19-13.57-1.53,1.63-5.84,1.67-7.09,2.43-.94.58-2.21,5.29-5.86,7.22-1.73.91-5.97,1.29-6.66,1.94-1.99,1.87-2.33,7.3-2.02,9.86.18,1.5,1.69,4.11,1.4,5.19-.1.38-2.91,3.49-3.51,4.74-2.13,4.44-1.69,9.38,1.32,13.29l5.68-11.52c3.28-4.62,7.11-9.04,12.24-11.67,1.57-.8,10.51-3.82,10.84-4.3ZM353.93,193.55c.41.32,8.05-2.6,8.19-3.21-.71-2.05-1.9-3.94-3.52-5.38-.65,3.27-2.4,6.18-4.67,8.59ZM370,190.2c1.25,1.66,6.44,14.28,7.33,14.55.54.16.72-.15,1.08-.34,1.12-.61,8.99-7.38,9.12-8.1l-9.5-11.26-8.04,5.15ZM374.49,205.51c-2.44-4.67-4.23-9.71-6.96-14.23l-15.09,5.27c1.5,5.46,4.46,10.39,6.35,15.69.26.74.22,2.21,1.28,2.24.66.02,4.84-1.66,5.81-2.06,1.81-.74,7.96-3.56,9.17-4.66s-.13-1.41-.57-2.25ZM328.14,199.91c-4.13-.29-7.95-2.27-11.33-4.55-1.27-.86-2.23-2.94-3.98-1.25,1.46,2.03,2.77,4.54,4.48,6.35.63.67,5.75,4.92,6.23,5,.57.09,1.24-.89,1.6-1.27s3.29-4.05,3-4.28ZM318.8,212.61c-.98-5.32-3.8-10.86-7.02-15.22-1.76-2.38-1.62-3.02-4.56-1.02,1.68,3,3.74,5.8,5.17,9,.58,1.3,2.07,6.38,2.48,6.87.64.77,2.93.21,3.93.37ZM349.82,196.92c-1.06.11-1.88.49-1.89,1.66-.02,3.09,2.68,8.11,3.04,11.39l3.71-.35-4.86-12.7ZM305.35,198.41c-.57-.54-.33-.91-1.59-.69-3.31.59-8.7,6.06-10.74,8.73-2.53,3.32-6.52,10.92-7.07,14.98-.32,2.34.96,1.7,2.96,2.39,4.69,1.63,9.39,3.01,14.34,3.71.96-.29,3.05-7.86,4.01-9.08.63-.81,1.87-.94,2.17.01.41,1.32-3.06,8.3-3.7,10.04,2.17-.69,3.62-4.08,4.29-6.17.88-2.75.91-5.23,1.39-7.95.15-.86.96-1.7.95-2.26-.05-2.42-5.08-11.87-7.02-13.71ZM346.08,198.79l-5.98,1.3,4.3,3.92c.63,0,1.42-4.39,1.68-5.22ZM337.49,200.65h-5.61l3.54,3.36,2.07-3.36ZM338.63,202.91c-3.31,9.23-6.51-.41-8.8-.41-1.84.9-3.61,5.36-5.4,5.85-1.21.33-4.04-2.39-5.06-3.21-.29-.06-.23.35-.18.55.54,2.1,1.78,4.47,2.46,6.57l25.74-1.89c1.91-.31-.33-4.15-.19-5.6-.71.2-.68,1.3-1.5,1.68-2.71,1.25-4.54-3.56-7.08-3.54ZM338.98,265.31c3.9.18,11.15.15,14.77-1.12.44-.15.66-.1.86-.63.55-1.42,1.31-6.46,1.51-8.2.15-1.27.64-7.34.37-8.13-.18-.5-.88-.5-.99-.67-.41-.65,2.3-5.55,2.72-7.03,1.67-5.79,1.52-12.12.45-18.01-.21-1.15-2.13-9.32-2.52-9.64-.11-.09-.8.04-1.11,0,3.78,7.62-8.05,8.93-6.73.74l-26.53,2.25c2.84,7.63-9.07,7.85-6.73.37-.31.04-.99-.09-1.11,0-.63.5-.89,11.79-5.79,14.58-.71.4-2.02.9-2.82,1.11-.52.14-1.56-.3-1.91.22-.27.39-1.74,7.4-1.79,8.25-.2,3.34,3.27,6.83,1.17,10.85-.46.87-1.49,1.43-1.75,1.99-.32.68.39,7.77.6,9.1.12.77.44,2.83.76,3.35.56.92,2,.74,2.93.99,3.93,1.06,12.3,2.46,15.99.88,1.25-.54,6.02-10.78,6.07-12.83,1.01-.36,1.84.9,2.47,1.01,1.16.19,5.47-.83,6.86-1.21,1.04-.28,5.31-2.11,5.72-2s.77.58.99.93c.21,1.21-3.85,2.81-4.84,3.13-1.09.35-4.82.47-4.84,1.64-.01.84,1.11,6.47,1.52,7.1.84,1.28,2.43.92,3.7.97ZM353.73,214.38c0-.96-.78-1.73-1.73-1.73s-1.73.78-1.73,1.73.78,1.73,1.73,1.73,1.73-.78,1.73-1.73ZM320.32,216.66c0-1.01-.82-1.83-1.83-1.83s-1.83.82-1.83,1.83.82,1.83,1.83,1.83,1.83-.82,1.83-1.83ZM361.41,236.9c4.04-3.4,5.55-9.7,3.06-14.47-.5-.95-1.71-1.64-1.58-2.9.12-1.15,3.22-2.78,2.82-4.68l-5.37,2.45c1.66,6.5,2.26,12.94,1.07,19.59ZM283.29,235.03c-.64-2.44,1.65-7.6,1.35-9.55-.08-.52-1.93-1.69-1.53-3.16-2.07,3.36-2.24,7.28-.84,10.93.19.49.46,1.69,1.02,1.77ZM300.85,229.44l-13.81-3.38c.15,1.83-1.92,9.34-1.33,10.46.78,1.51,11.17,2.86,13.25,2.58l1.9-9.67ZM285.54,239.15v5.42c0,.1.79,1.4.96,1.66,1.5,2.24,4.46,3.13,7.07,2.63,2.08-.4.85-3.14,1.88-3.35,1.5-.3,2.14,4.18,3.41,4.43,3.63-.85,1.46-6.01.53-8.37-4.67-.27-9.54-.51-13.84-2.41ZM344.21,267.55c-1.3.02-3.12-.33-4.11.37-.25-.02-.5.02-.75,0-.38-.03-4.52-1.13-4.49-.56.69,3.9.35,4.32,4.49,4.67.91.08,2.06.04,2.99,0,.67-.03.71-.37.75-.37,1.67-.12,10.26-.66,10.84-1.77.4-.76.37-2.53.74-3.46-3.65.42-6.75,1.05-10.46,1.12ZM305.72,268.3c-.65-.13-4.19-1.41-4.48-1.12.27.9.28,3.48.83,4.02.36.35,2.23.66,2.91.83,3.29.83,7.22,1.35,10.6,1.07s6.04-.47,5.84-4.44c-5.31,1.09-10.42.66-15.69-.38ZM351.67,273.16c-4.06.77-8.17,1.3-12.31,1.11.21,1.79-.79,3.41,1.12,4.3,3.62,1.68,10.26.77,14.2.56l-3.01-5.97ZM317.68,275.4c-4.52.3-9.07.37-13.45-1.12.14,1.49-1.15,4.47-.71,5.74.26.74,5.26,1.52,5.54,1.33.46-.32.17-3.72,1.71-3.73,1.94.48,1.21,2.7,1.31,4.13l5.23-.38c.07-2.01-.24-4.04.38-5.97Z"/>
    <path class="st8" d="M305.35,230.92c.79-.21,2.11-.7,2.82-1.11,4.9-2.8,5.16-14.08,5.79-14.58.11-.09.8.04,1.11,0-2.34,7.47,9.57,7.26,6.73-.37l26.53-2.25c-1.32,8.19,10.51,6.88,6.73-.74.31.04,1-.09,1.11,0,.38.32,2.31,8.49,2.52,9.64,1.07,5.89,1.21,12.22-.45,18.01-.43,1.48-3.13,6.38-2.72,7.03.11.17.81.17.99.67.27.79-.22,6.86-.37,8.13-.21,1.74-.96,6.79-1.51,8.2-.21.53-.42.48-.86.63-3.61,1.27-10.87,1.3-14.77,1.12-.59-3.2-.33-6.47-.37-9.72.98-.31,5.05-1.92,4.84-3.13-.22-.35-.59-.83-.99-.93s-4.68,1.72-5.72,2c-1.39.38-5.7,1.4-6.86,1.21-.63-.1-1.46-1.37-2.47-1.01-.05,2.05-4.83,12.29-6.07,12.83-3.68,1.58-12.06.18-15.99-.88-.37-4.36-1.95-9.7-1.51-14.03.16-1.62,1.02-2.36,1.15-3.71s-.38-2.47-.4-3.73c-.09-4.45.09-8.89.76-13.28ZM347.49,220.92c-.81-.85-20.67,1.57-23.45,1.41-.38.36.82,9.7,1.33,10.45.47.7,10.45,4.35,11.67,4.42,1,.06,4.19-1.75,5.32-2.34,1.3-.68,5.8-3.12,6.18-4.28.3-.88-.57-9.15-1.05-9.65Z"/>
    <circle class="st2" cx="345.5" cy="169.23" r="1.1"/>
    <path class="st2" d="M355.05,171.88c-3.12.52-6.9,2.6-4.48,6.17,1.57,2.33,3.74,1.32,5.98,1.68-.35,23.12-38.04,23.85-45.98,3.18-.79-2.06-2.49-8.83-1.67-10.65.38-.85,4.52-4.02,2.16-5.64-1.6-1.1-2.72,1.96-3.7,2.97-3.2,3.29-9.04,5.22-13.43,3.42-6.62-2.72,2.91-9.91,6.1-11.49.71-.35,5.05-2.03,5.47-2,.17.01,1.38,1.97,2.33,2.58,2.41,1.54,5.89,1.96,8.65,1.3,1.55-.37,4.97-3.08,5.43-3.04.68.06,1.69,1.26,2.47,1.64,4.52,2.2,9.75,2.42,14.24,0,.99-.54,4.23-3.54,4.59-3.5.68.07,1.98.97,3.12,1.04,1.03.06,1.87-.41,2.55-.35,1.19.1,3.44,4.86,3.99,6.11.96,2.17,1.55,4.32,2.18,6.61ZM294.51,170.38c4.38,1.65,9.45.52,11.89-3.61.57-.96,2.06-3.73.25-3.88-1.22-.1-10.07,5.08-11.36,6.22-.42.37-.92.57-.78,1.27ZM345.02,168.25c-.17,0-.35.14-.38.31-2.31,3.51,1.59,7.28,4.46,5.03s-.13-9.16-4.09-5.34ZM324.03,170.76c2.06-.23,2.06,2.1,0,1.87v-1.87c-2.76,3.19.93,7.88,4.31,5.62,3.79-2.53-.8-9.69-4.31-5.62ZM320.2,176.82c-4.11.83-5.16,6.39-.66,7.58,8.11,2.14,8.49-9.17.66-7.58ZM343.47,186.45c.4-1-.51-3.25-.34-3.86.27-.94,3.98-1.93,2.77-4.36s-3.34,1.38-4.88,1.48c-1.43.1-4.39-2.69-4.98-.87-1.07,3.28,3.83,3.24,4.27,3.85.28.38.74,4.31.54,4.5-1.46.1-2.96-.05-4.24-.81-1.53-.9-2.45-3.75-3.5-4-2.7-.63-1.46,2.9-.48,4.24,2.94,4.03,8.82,4.36,13.04,2.21,1.53-.78,6.06-5.02,2.66-5.97-1.97-.55-2.5,3.78-4.86,3.58Z"/>
    <path class="st2" d="M312.06,191.67c-.33.48-9.27,3.5-10.84,4.3-5.14,2.63-8.97,7.06-12.24,11.67l-5.68,11.52c-3.01-3.9-3.45-8.84-1.32-13.29.6-1.25,3.41-4.36,3.51-4.74.29-1.08-1.22-3.69-1.4-5.19-.31-2.56.03-7.99,2.02-9.86.69-.65,4.93-1.03,6.66-1.94,3.66-1.93,4.92-6.64,5.86-7.22,1.25-.77,5.56-.8,7.09-2.43.39,4.86,1.73,9.37,4.19,13.57.48.82,2.6,2.96,2.15,3.61Z"/>
    <path class="st14" d="M358.79,212.24c-1.89-5.3-4.86-10.23-6.35-15.69l15.09-5.27c2.73,4.52,4.53,9.56,6.96,14.23-3.27,1.28-6.22,3.17-9.46,4.55-2.02.86-4.08,1.71-6.23,2.18Z"/>
    <path class="st10" d="M396.06,171.95c.94-.2,2.28-.12,1.92,1.18-.49,1.77-5.52,3.39-5.13,4.85,1.05,4.01,7.3-2.63,9.43-1.95,3.52,1.12-5.43,6.03-5.76,6.48-.72.97-.23,2.41.95,2.44,1.6.05,5.95-4.63,7.13-2.99.96,1.33-2.29,3.51-3.23,4.28-3.63,2.98-7.72,5.52-11.69,8.03-.69-.12-8.99-9.98-9.13-10.66-.19-.93,1.71-3.72,2.06-4.91.41-1.41.29-5.8,1.08-6.04,2.71-.81,2.78,4.74,3.25,6.04.36.99,1.46,1.82,1.68,2.81.31,1.4-.49,2.83-.26,3.6.39,1.32,1.84.34,2.36-.54,1.93-3.23-1.59-5.42-1.23-6.8.2-.78,5.64-5.6,6.57-5.8Z"/>
    <path class="st2" d="M370,190.2l8.04-5.15,9.5,11.26c-.12.71-8,7.49-9.12,8.1-.36.2-.54.5-1.08.34-.9-.27-6.08-12.89-7.33-14.55Z"/>
    <path class="st14" d="M338.63,202.91c2.54-.03,4.37,4.78,7.08,3.54.82-.38.78-1.48,1.5-1.68-.14,1.45,2.1,5.29.19,5.6l-25.74,1.89c-.69-2.1-1.92-4.47-2.46-6.57-.05-.2-.11-.61.18-.55,1.02.82,3.85,3.55,5.06,3.21,1.8-.5,3.56-4.96,5.4-5.85,2.3,0,5.5,9.64,8.8.41Z"/>
    <path class="st2" d="M300.85,229.44l-1.9,9.67c-2.08.27-12.47-1.07-13.25-2.58-.58-1.12,1.48-8.64,1.33-10.46l13.81,3.38Z"/>
    <path class="st10" d="M285.54,239.15c4.31,1.91,9.17,2.15,13.84,2.41.93,2.36,3.11,7.52-.53,8.37-1.26-.25-1.9-4.73-3.41-4.43-1.03.21.19,2.95-1.88,3.35-2.6.5-5.56-.39-7.07-2.63-.17-.26-.96-1.56-.96-1.66v-5.42Z"/>
    <path class="st18" d="M305.35,198.41c-8.88,5.44-14.66,15.27-16.44,25.41-2-.69-3.27-.05-2.96-2.39.55-4.06,4.55-11.66,7.07-14.98,2.03-2.67,7.42-8.14,10.74-8.73,1.26-.22,1.02.14,1.59.69Z"/>
    <path class="st17" d="M305.35,230.92c-.68,4.39-.86,8.83-.76,13.28.03,1.25.54,2.32.4,3.73s-.99,2.1-1.15,3.71c-.44,4.33,1.14,9.67,1.51,14.03-.94-.25-2.38-.07-2.93-.99-.31-.52-.63-2.59-.76-3.35-.22-1.33-.92-8.42-.6-9.1.26-.56,1.29-1.11,1.75-1.99,2.1-4.03-1.36-7.52-1.17-10.85.05-.85,1.53-7.86,1.79-8.25.36-.52,1.39-.08,1.91-.22Z"/>
    <path class="st10" d="M351.67,273.16l3.01,5.97c-3.94.21-10.58,1.12-14.2-.56-1.91-.89-.91-2.51-1.12-4.3,4.14.19,8.26-.34,12.31-1.11Z"/>
    <path class="st10" d="M317.68,275.4c-.61,1.94-.31,3.97-.38,5.97l-5.23.38c-.1-1.43.63-3.65-1.31-4.13-1.54,0-1.25,3.41-1.71,3.73-.27.19-5.28-.59-5.54-1.33-.44-1.27.85-4.25.71-5.74,4.38,1.49,8.93,1.43,13.45,1.12Z"/>
    <path class="st8" d="M318.8,212.61c-1-.16-3.29.4-3.93-.37-.41-.49-1.89-5.56-2.48-6.87-1.43-3.2-3.5-6-5.17-9,2.94-2,2.8-1.37,4.56,1.02,3.22,4.36,6.04,9.89,7.02,15.22Z"/>
    <path class="st14" d="M328.14,199.91c.29.24-2.66,3.92-3,4.28-.36.38-1.03,1.36-1.6,1.27-.49-.07-5.61-4.33-6.23-5-1.7-1.82-3.02-4.33-4.48-6.35,1.75-1.69,2.71.39,3.98,1.25,3.38,2.28,7.2,4.26,11.33,4.55Z"/>
    <path class="st2" d="M361.41,236.9c1.19-6.65.58-13.09-1.07-19.59l5.37-2.45c.4,1.9-2.7,3.52-2.82,4.68-.13,1.26,1.09,1.94,1.58,2.9,2.49,4.77.97,11.06-3.06,14.47Z"/>
    <path class="st5" d="M305.72,268.3c5.28,1.03,10.38,1.47,15.69.38.2,3.96-2.57,4.17-5.84,4.44s-7.32-.25-10.6-1.07c.25-1.21-.69-4.05.75-3.74Z"/>
    <path class="st5" d="M344.21,267.55c3.72-.06,6.81-.7,10.46-1.12-.37.93-.34,2.7-.74,3.46-.58,1.11-9.18,1.65-10.84,1.77l-.75.37c-.93.04-2.08.08-2.99,0v-4.11c.25.02.5-.02.75,0,1.2.08,3.19.24,4.11-.37Z"/>
    <path class="st18" d="M374.49,205.51c.44.84,1.77,1.16.57,2.25s-7.36,3.92-9.17,4.66c-.97.4-5.15,2.07-5.81,2.06-1.06-.03-1.02-1.5-1.28-2.24,2.15-.47,4.21-1.32,6.23-2.18,3.25-1.38,6.19-3.27,9.46-4.55Z"/>
    <path class="st8" d="M349.82,196.92l4.86,12.7-3.71.35c-.36-3.28-3.06-8.3-3.04-11.39,0-1.17.83-1.55,1.89-1.66Z"/>
    <path class="st6" d="M356.55,179.73c-2.24-.36-4.41.65-5.98-1.68-2.42-3.57,1.36-5.64,4.48-6.17.74,2.69,1.54,4.93,1.49,7.85Z"/>
    <path class="st17" d="M338.61,255.59c.05,3.25-.22,6.52.37,9.72-1.26-.06-2.86.3-3.7-.97-.41-.62-1.53-6.26-1.52-7.1.02-1.18,3.75-1.29,4.84-1.64Z"/>
    <path class="st2" d="M353.93,193.55c2.27-2.41,4.02-5.32,4.67-8.59,1.63,1.43,2.82,3.33,3.52,5.38-.14.61-7.79,3.53-8.19,3.21Z"/>
    <path class="st2" d="M283.29,235.03c-.56-.08-.83-1.28-1.02-1.77-1.4-3.66-1.23-7.57.84-10.93-.4,1.47,1.45,2.65,1.53,3.16.3,1.95-1.99,7.11-1.35,9.55Z"/>
    <path class="st8" d="M339.36,267.92v4.11c-4.14-.34-3.8-.76-4.49-4.67-.03-.57,4.11.53,4.49.56Z"/>
    <path class="st14" d="M346.08,198.79c-.26.83-1.05,5.21-1.68,5.22l-4.3-3.92,5.98-1.3Z"/>
    <path class="st8" d="M305.72,268.3c-1.44-.31-.5,2.53-.75,3.74-.67-.17-2.55-.48-2.91-.83-.55-.54-.56-3.12-.83-4.02.29-.29,3.83.99,4.48,1.12Z"/>
    <polygon class="st2" points="337.49 200.65 335.42 204.02 331.88 200.65 337.49 200.65"/>
    <circle class="st8" cx="318.49" cy="216.66" r="1.83"/>
    <circle class="st8" cx="352" cy="214.38" r="1.73"/>
    <path class="st8" d="M344.21,267.55c-.92.62-2.91.46-4.11.37.99-.7,2.81-.35,4.11-.37Z"/>
    <path class="st8" d="M343.09,271.66s-.08.34-.75.37l.75-.37Z"/>
    <path class="st14" d="M288.9,223.82c1.79-10.14,7.56-19.97,16.44-25.41,1.93,1.84,6.97,11.28,7.02,13.71.01.56-.8,1.41-.95,2.26-.48,2.72-.51,5.2-1.39,7.95-.67,2.09-2.13,5.47-4.29,6.17.64-1.74,4.11-8.72,3.7-10.04-.3-.95-1.53-.83-2.17-.01-.96,1.23-3.05,8.8-4.01,9.08-4.95-.69-9.65-2.08-14.34-3.71Z"/>
    <path class="st11" d="M347.49,220.92c.48.5,1.35,8.77,1.05,9.65-.39,1.16-4.88,3.6-6.18,4.28-1.13.59-4.33,2.41-5.32,2.34-1.22-.08-11.2-3.72-11.67-4.42-.51-.75-1.71-10.09-1.33-10.45,2.78.16,22.64-2.26,23.45-1.41ZM345.71,223.07l-19.02,1.54c0,1.52.19,6.27,1.33,7,.73.47,7.44,2.81,8.34,2.9,1.37.14,9.2-3.65,9.64-4.41.71-1.23-.74-5.4-.29-7.03Z"/>
    <path class="st11" d="M343.47,186.45c2.36.21,2.89-4.13,4.86-3.58,3.4.95-1.13,5.19-2.66,5.97-4.22,2.15-10.1,1.82-13.04-2.21-.98-1.34-2.22-4.87.48-4.24,1.05.25,1.97,3.1,3.5,4,1.28.75,2.78.91,4.24.81.19-.19-.26-4.12-.54-4.5-.44-.61-5.35-.57-4.27-3.85.59-1.82,3.55.96,4.98.87,1.55-.11,3.66-3.93,4.88-1.48s-2.49,3.42-2.77,4.36c-.18.61.74,2.87.34,3.86Z"/>
    <path class="st6" d="M320.2,176.82c7.83-1.59,7.45,9.73-.66,7.58-4.5-1.19-3.45-6.75.66-7.58Z"/>
    <path class="st11" d="M324.03,170.76v1.87c2.06.24,2.06-2.1,0-1.87,3.51-4.07,8.1,3.09,4.31,5.62-3.38,2.26-7.07-2.43-4.31-5.62Z"/>
    <path class="st11" d="M344.64,168.55c-.35.44-.31,1.07.09,1.46s1.03.42,1.46.07.53-.97.23-1.44-.91-.64-1.41-.39c3.95-3.82,6.97,3.09,4.09,5.34s-6.77-1.52-4.46-5.03Z"/>
    <path class="st11" d="M344.64,168.55c.03-.16.2-.3.38-.31-.15.07-.28.18-.38.31Z"/>
    <path class="st8" d="M345.71,223.07c-.45,1.63,1,5.8.29,7.03-.44.76-8.28,4.55-9.64,4.41-.9-.09-7.61-2.43-8.34-2.9-1.14-.73-1.32-5.48-1.33-7l19.02-1.54Z"/>
    <g>
      <path class="st2" d="M353.93,147.96c1.21,5.34-2.97,9.7-8.33,8.51-2.02-.45-.97-1.89-1.75-2.72-1.96-2.08-2.78,1.65-3.58,2.79-3.62,5.13-10.56,5.09-15.61,2.2-.82-.47-2.32-2.11-3.07-2.2-1.25-.14-1.28,1.08-2.02,1.72-3.08,2.69-7.63,3.79-10.85.73,2.3-.88,3.12-4.22,4.3-5.41,1.26-1.27,20.79-4.08,23.96-4.45,5.62-.65,11.32-1.09,16.96-1.17Z"/>
      <path class="st13" d="M322.17,127.78c2.89-.08,7.63.45,10.65.75,4.34.43,5.31,5.28,8.79,7.47.87.17.6,1.28.75,1.49-4.91-.04-9.84.55-14.71,1.17s-12.95,1.52-17.43,2.94l1.87-11.96c2.79-.85,7.21-1.79,10.09-1.87Z"/>
      <path class="st16" d="M291.52,141.23c1.22-.14.66.34.48,1.04-1.25,4.94-1.69,8.42-.48,13.54-1.56.23-4.81,1.9-5.98,2.99-.59-1.43-2.36-3.11-3.56-4.1-1.88-1.54-3.93-2.3-5.78-3.75,3.87-5.43,8.67-8.75,15.32-9.72Z"/>
      <path class="st13" d="M361.4,145.34c-16.28-.03-32.58,1.9-48.4,5.6l-.56-3.16c4.3-.99,8.64-2,13.01-2.7,8.26-1.33,17.32-2.34,25.69-1.99,1.39.06,9.15.71,9.72,1.12.38.27.64.64.54,1.14Z"/>
      <path class="st10" d="M342.35,137.49c.21.31,2.49,3.17,2.24,3.36-11.28,0-22.44,2.32-33.45,4.53-.64-.04-1.75-2.1-2.43-2.66.21-.46,1.07-.99,1.49-1.12,4.48-1.42,12.55-2.31,17.43-2.94s9.8-1.22,14.71-1.17Z"/>
      <path class="st16" d="M297.13,141.23c2.3.06,5.08,1.17,7.1,2.24-.68,4.81-3.46,8.87-5.61,13.08-1.41-.44-2.62-.66-4.11-.75-1.11-2.69-1.18-12.15.55-14.21.47-.56,1.42-.38,2.06-.37Z"/>
      <path class="st16" d="M284.05,160.67c-.95,1.52-1.71,3.81-1.87,5.61-3.44-.38-7.07-1.06-10.09,1.12-.6-4.8.14-8.99,2.24-13.45,3.96.48,7.25,3.81,9.72,6.73Z"/>
      <path class="st16" d="M375.61,159.92c-2.2.46-5.12-1.54-7.1.37-.97-1.03-4.66-3.84-5.98-4.86,2.27-3.12,5.38-5.11,8.6-7.1,2.36,3.69,4.18,6.87,4.48,11.59Z"/>
      <path class="st16" d="M282.18,168.51c.15,1.4,1.04,3.73,1.87,4.86-2.81,1.21-4.14,4.11-5.23,6.73-3.89-3.02-5.26-5.75-6.35-10.46,3.2-1.37,6.3-1.19,9.72-1.12Z"/>
      <path class="st2" d="M356.17,165.52c2.38.77,6.09.55,7.84-1.31,0-.54-8.8-3.86-10.08-3.92-.16-.31-1.8-1.16-1.49-2.24,1.08.15,1.85-1.26,2.51-1.45.98-.27,7.22,2.64,8.44,3.38,8.85,5.42.77,9.12-5.85,8.09-.77-.25-1-1.81-1.37-2.56Z"/>
      <path class="st16" d="M285.54,174.87c3.38,2.37,6.62.37,9.71,2.05-2.64,5.88-8.15,7.05-13.82,4.67.03-2.46,1.94-5.64,4.11-6.73Z"/>
      <path class="st1" d="M297.12,159.18c.54.59-.21.65-.47.85-2.04,1.59-4.69,3.14-6.25,5.31-1.88,2.61-.51,3.77-5.24,3.18-.49-4.15,2.19-9.07,6.58-9.69.88-.12,4.94-.14,5.38.35Z"/>
      <path class="st16" d="M300.86,157.68c2.58-3.82,4.38-8.03,5.98-12.33,1.01.87,1.79,1.33,2.43,2.61,1.35,2.7,1.43,6.88-1.79,8.31-.63.28-6,1.44-6.63,1.41Z"/>
      <path class="st16" d="M370,146.46c-4.18.89-6.76,4.38-9.34,7.47-.18-.12-3.38-1.07-2.62-1.86.6-.62,4.12-.82,5.38-3.03.74-1.28.47-5.54-.53-6.5s-4.53-1.14-5.97-1.31l-.37-2.62c5.51.59,10.14,3.64,13.45,7.85Z"/>
      <path class="st16" d="M375.23,162.91c-.5,4.68-1.2,7.89-4.86,11.21l-2.99-4.48c2.28-1.53,3.57-4.43,2.62-7.1,1.75.04,3.55-.22,5.23.37Z"/>
      <path class="st16" d="M365.14,170.76c.55,1.65,2.45,2.91,2.24,4.86-.23,2.24-6.08,1.91-7.83,1.85l-1.14-6.33c2.24-.06,4.55.22,6.73-.38Z"/>
      <path class="st1" d="M312.07,129.65l-1.87,11.96c-.43.14-1.28.66-1.49,1.12-.66-.54-3.24-1.4-3.21-2.26.93-2.3,1.6-8.52,3.69-9.78.64-.39,2.1-.8,2.89-1.04Z"/>
      <path class="st15" d="M297.13,141.23c-.64-.02-1.59-.19-2.06.37-1.73,2.06-1.67,11.52-.55,14.21-.85-.05-2.2-.11-2.99,0-1.21-5.11-.77-8.59.48-13.54.18-.7.73-1.18-.48-1.04,1.73-.25,3.97-.91,5.61,0Z"/>
      <path class="st15" d="M306.84,145.34c-1.6,4.3-3.4,8.51-5.98,12.33-1.15-.06-1.72-.96-2.24-1.12,2.14-4.21,4.93-8.27,5.61-13.08,1.19.63,1.63,1.01,2.62,1.87Z"/>
      <path class="st15" d="M285.54,158.8c-.09.08-1.41,1.74-1.49,1.87-2.47-2.92-5.76-6.24-9.72-6.73.59-1.24,1.1-1.91,1.87-2.99,1.85,1.45,3.9,2.21,5.78,3.75,1.2.99,2.97,2.67,3.56,4.1Z"/>
      <path class="st4" d="M356.17,165.52c-.8-1.63-1.55-3.9-2.24-5.23,1.28.06,10.09,3.38,10.08,3.92-1.75,1.86-5.46,2.07-7.84,1.31Z"/>
      <path class="st15" d="M370,146.46c.72.92.69,1.2,1.12,1.87-3.21,1.99-6.32,3.98-8.6,7.1-.58-.44-1.38-1.16-1.87-1.49,2.58-3.1,5.16-6.58,9.34-7.47Z"/>
      <path class="st16" d="M322.17,127.78c1.17-.41,3.05-.7,4.28-.76,2.2-.11,8.12-.31,9.81.65,1.15.65,4.58,6.8,5.34,8.33-3.47-2.19-4.45-7.04-8.79-7.47-3.02-.3-7.76-.83-10.65-.75Z"/>
      <path class="st15" d="M282.18,166.27c-.06.64-.07,1.61,0,2.24-3.42-.06-6.52-.24-9.72,1.12-.21-.91-.26-1.34-.37-2.24,3.02-2.18,6.65-1.5,10.09-1.12Z"/>
      <path class="st15" d="M284.05,173.37c.06.09,1.41,1.43,1.49,1.49-2.17,1.09-4.08,4.27-4.11,6.73-1.42-.59-1.41-.56-2.62-1.49,1.09-2.61,2.42-5.52,5.23-6.73Z"/>
      <path class="st15" d="M375.61,159.92c.09,1.36-.27,2.05-.37,2.99-1.68-.59-3.48-.33-5.23-.37-.07-.18-1.29-2.03-1.49-2.24,1.98-1.92,4.9.09,7.1-.37Z"/>
      <path class="st15" d="M370.38,174.12c-.89.8-1.66,1.73-2.99,1.49.2-1.94-1.7-3.2-2.24-4.86.31-.09,1.91-.9,2.24-1.12l2.99,4.48Z"/>
      <path class="st16" d="M353.56,138.62l.37,2.24c-1.08-.07-6.5.24-6.73,0-.1-.1-.1-.91.23-1.15.94-.69,4.8-1.05,6.13-1.09Z"/>
      <path class="st2" d="M288.49,169.3c.18.15.65,3.74,1.15,4.45-1.83-.8-4.07-2.26-4.11-4.48.63.12,2.66-.21,2.95.04Z"/>
      <path class="st15" d="M361.4,147.59c.32,1.43-4.14,2.92-4.48,2.61l-.38-2.61h4.86Z"/>
      <path class="st15" d="M356.55,138.62l.37,2.62c-1-.12-1.98-.31-2.99-.37l-.37-2.24c.93-.03,2.1-.1,2.99,0Z"/>
      <path class="st4" d="M294.51,170.38c-.15-.7.35-.9.78-1.27,1.29-1.13,10.14-6.32,11.36-6.22,1.81.15.32,2.92-.25,3.88-2.44,4.13-7.51,5.26-11.89,3.61Z"/>
    </g>
  </g>
  <g>
    <path class="st2" d="M304.97,358.74c.22,6.08,2.61,11.74,6.35,16.44-6.09,2.18-14.57,4.73-17.63,10.96-1.7,3.46-2.15,7.84-1.82,11.66.17,1.91,1.55,4.62,1.49,5.93-.06,1.18-1.11,3.79-1.36,5.38-.89,5.57-1.13,9.8.53,15.3.6,1.98,1.45,3.86,2.71,5.51-2.82.41-7.45-2.22-7.83-5.27-.14-1.12.51-2.4.19-3.13-.23-.51-2.13-1.7-2.81-2.45-3.55-3.92-4.29-8.63-2.32-13.52.35-.87,1.58-2.19,1.56-2.93-.01-.36-2.46-3.58-2.88-4.95-.97-3.19-.62-6.38.95-9.31.65-1.21,3.2-3.81,3.38-4.5.1-.39-1.91-5.68-1.84-7.77.05-1.42,1.45-6.04,2.45-6.92.51-.44,3.16-.57,4.29-.94,3.84-1.24,5.78-4.02,7.49-7.46l7.09-2.06Z"/>
    <g>
      <path class="st2" d="M352.07,332.95c.84,5.84-2.96,9.18-8.7,8.12-2.09-.38,0-3.61-2.63-2.83-.57.17-2.67,4.08-4.18,5.17-4.99,3.63-11.96,1.71-16.07-2.25-1.5.71-2.23,2.19-3.73,3.02-3.13,1.74-6.18,1.41-9.17-.39.49-1.07,1.68-1.42,2.41-2.26.78-.89,1.34-2.78,1.9-3.33,1.1-1.07,19.22-3.74,22.09-4.07,5.99-.7,12.06-1.18,18.08-1.17Z"/>
      <path class="st13" d="M318.8,313.52c4.09-.37,5.65-.06,9.54.37,1.65.18,3.31-.26,4.98.25,1.94.6,3.06,3.19,4.35,4.61.77.85,1.69,1.38,2.43,2.24.37.43.48.74.75,1.12l-14.71,1.55c-5.17,1.26-11.66,1.24-16.68,2.56l2.24-11.59c1.54-.46,3.27-.51,4.86-.75.6-.02,1.55.23,1.87-.37.12-.01.25.01.37,0Z"/>
      <path class="st16" d="M291.89,325.48c-1.97,4.68-1.67,9.63-1.12,14.58-1.22.19-3.86,1.44-4.86,2.24l-5.26-4.65-4.46-2.45c3.62-5.07,9.35-9.11,15.7-9.72Z"/>
      <path class="st16" d="M359.16,329.22c.22.33-.05,1.32-.61,1.46-7.14-.54-14.85.05-22,.78-8.16.83-16.28,2.41-24.29,4.11-.14,0-.6-2.1-.58-2.44.08-1.17,4.37-1.69,5.55-1.93,9.94-2.07,22.27-3.58,32.41-3.12,1.18.05,9.25.74,9.51,1.14Z"/>
      <path class="st10" d="M340.85,322.11c.84,1.21,1.4,2.53,2.24,3.73-11.11.21-22.27,1.84-33.04,4.5-.7-.94-1.62-2.23-2.46-3,.59-.04,1.6-1.05,1.87-1.12,5.03-1.32,11.52-1.3,16.68-2.56l14.71-1.55Z"/>
      <path class="st16" d="M303.48,328.47c-.86,4.54-3.33,8.43-5.61,12.33-1.69-.61-2.71-.7-4.48-.75-.69-5.12-.52-9.68,1.12-14.58,3.87.23,5.84,1.25,8.97,2.99Z"/>
      <path class="st16" d="M283.67,344.54c-.57.82-1.76,4.54-1.87,5.61-3.1-.57-6.89-.91-9.72.75-.46-4.65.41-9.24,2.62-13.45,3.74,1.18,6.45,4.25,8.97,7.1Z"/>
      <path class="st16" d="M373.37,345.66c-2.16-1.08-4.8-.97-7.1-.37-1.17-1.18-4.41-3.25-5.98-4.48,2.38-3.07,5.69-5.38,9.34-6.73,2.23,3.65,3.62,7.21,3.74,11.59Z"/>
      <path class="st16" d="M281.8,352.38c.09.66,1.16,3.96,1.49,4.48-2.22,1.6-4.04,3.94-4.48,6.73-4.01-2.68-5.35-5.8-6.35-10.46,3.3-1.09,5.91-1.25,9.34-.75Z"/>
      <path class="st2" d="M354.31,350.52c1.64,0,3.25.09,4.88-.17,1.16-.18,2.66-.39,2.22-1.69l-9.34-3.37c-.05-.11-.64-.37-.84-.84-.66-1.5.95-3.08,2.43-2.84,2.11.34,10.68,4.91,11.35,7.03,1.05,3.36-7.06,5.1-9.31,4.42-1.3-.4-1.07-1.84-1.38-2.54Z"/>
      <path class="st16" d="M281.06,364.72c.1-2.74,2.14-4.43,3.74-6.35,3.05,2.03,6.73.77,9.71,2.43-2.36,4.95-7.5,6.61-12.61,4.75-.51-.18-.74-.78-.84-.83Z"/>
      <path class="st1" d="M297.13,343.42c-2.32,1.96-5,3.54-6.92,5.97-.53.67-1.24,2.49-1.36,2.56-.57.36-3.15-.13-4.05.06-.69-6.82,6.23-11.04,12.33-8.59Z"/>
      <path class="st16" d="M368.13,331.83c-3.75,1.46-7.4,3.83-9.34,7.47-.36-.28-3.66-1.53-2.99-2.24.13-.13,2.81-.81,3.5-1.17,2.65-1.37,2.87-3.18,2.38-6.03-.64-3.8-3.46-2.7-6.26-3.64v-2.24c5.27.95,9.39,3.7,12.71,7.85Z"/>
      <path class="st16" d="M300.12,341.92c2.51-3.72,4.36-7.79,5.98-11.96,3.16,2.67,5.12,8.68.46,10.74-.79.35-5.86,1.34-6.44,1.22Z"/>
      <path class="st16" d="M373.37,347.9c-.41,4.57-2.17,8.26-5.61,11.21.1-1.96-1.77-3.43-2.24-5.23,1.75-1.24,2.73-4.32,2.24-6.35l5.61.37Z"/>
      <path class="st16" d="M362.9,355.37c1.1,1.58,2.74,3.13,2.62,5.23-.09.05-.23.5-.63.66-2.59,1.06-4.84.89-7.59.83l-1.12-6.35c2.11-.14,4.72.32,6.73-.38Z"/>
      <path class="st1" d="M309.46,326.22c-.27.07-1.28,1.08-1.87,1.12-.48-.44-2.48-1.43-2.55-1.56-.34-.57,2.16-8.02,2.75-8.89.77-1.12,2.63-1.88,3.91-2.26l-2.24,11.59Z"/>
      <path class="st15" d="M294.51,325.48c-1.64,4.9-1.81,9.46-1.12,14.58-.78-.02-1.91-.11-2.62,0-.54-4.94-.84-9.89,1.12-14.58.77-.07,1.83-.05,2.62,0Z"/>
      <path class="st15" d="M306.1,329.96c-1.62,4.17-3.47,8.24-5.98,11.96-1.2-.24-1.62-.89-2.24-1.12,2.28-3.91,4.74-7.8,5.61-12.33,1.12.62,1.25.34,2.62,1.49Z"/>
      <path class="st15" d="M285.91,342.29c-.18.15-2.15,2.11-2.24,2.24-2.52-2.85-5.23-5.92-8.97-7.1.49-.94.92-1.43,1.49-2.24l4.46,2.45,5.26,4.65Z"/>
      <path class="st15" d="M369.63,334.07c-3.65,1.34-6.96,3.66-9.34,6.73-.67-.52-1.09-1.17-1.49-1.49,1.94-3.64,5.59-6.01,9.34-7.47.65.82.97,1.38,1.49,2.24Z"/>
      <path class="st4" d="M352.06,345.28l9.34,3.37c.44,1.31-1.06,1.51-2.22,1.69-1.63.26-3.24.16-4.88.17-.05-.1.05-.27,0-.37l-.37-.37c-.65-1.46-1.22-3.14-1.87-4.48Z"/>
      <path class="st16" d="M340.1,320.99c-.74-.86-1.66-1.39-2.43-2.24-1.29-1.42-2.41-4.01-4.35-4.61-1.67-.52-3.33-.07-4.98-.25-3.89-.43-5.44-.74-9.54-.37,3.65-.87,12.53-2.1,15.78-.65,1.74.78,4.78,6.21,5.52,8.12Z"/>
      <path class="st15" d="M281.8,350.14c-.06.6-.08,1.65,0,2.24-3.44-.5-6.05-.34-9.34.75-.19-.89-.28-1.3-.37-2.24,2.83-1.65,6.62-1.32,9.72-.75Z"/>
      <path class="st15" d="M284.79,358.36c-1.6,1.92-3.63,3.61-3.74,6.35-1.07-.5-1.03-.31-2.24-1.12.45-2.79,2.26-5.12,4.48-6.73.06.09,1.41,1.44,1.49,1.49Z"/>
      <path class="st15" d="M373.37,345.66c.02.71.06,1.55,0,2.24l-5.61-.37c-.03-.13-1.32-2.06-1.49-2.24,2.31-.59,4.94-.7,7.1.37Z"/>
      <path class="st15" d="M367.76,359.11c-1.15.99-.96.8-2.24,1.49.12-2.1-1.52-3.66-2.62-5.23.17-.06,2.35-1.3,2.62-1.49.47,1.81,2.34,3.27,2.24,5.23Z"/>
      <path class="st16" d="M351.69,323.61c.53,1.03,1.39,2.03,0,2.62-1.97-.17-3.99-.49-5.98-.56.03-1.39,4.84-1.99,5.98-2.05Z"/>
      <path class="st2" d="M289.28,357.24c-2.22-.37-4.02-2.24-4.11-4.48,4.9-.72,2.13,1.68,4.11,4.48Z"/>
      <path class="st15" d="M355.43,323.98v2.24c-1.23-.07-2.51.1-3.74,0,1.39-.59.53-1.59,0-2.62,1.48-.08,2.35.12,3.74.37Z"/>
      <path class="st1" d="M354.68,334.82c.06-.41-.1-1.77,0-1.87.18-.17,4.85-.65,4.85.19-1.18,1.4-3.11,1.81-4.85,1.68Z"/>
      <path class="st16" d="M318.43,313.52c-.32.61-1.27.35-1.87.37.54-.08,1.03-.29,1.87-.37Z"/>
      <path class="st2" d="M354.31,350.14c-.04-.1-.3-.21-.37-.37l.37.37Z"/>
      <path class="st4" d="M294.14,353.51c3.13-1.58,6.15-3.99,9.33-5.44,1.7-.77,3.38-1.8,2.98,1.1-.27,1.98-3.46,4.98-5.32,5.53-1.61.47-6.71,1-6.99-1.2Z"/>
      <path class="st11" d="M343.2,357.51c-2.46-2.1-1.08-7.69,3.16-5.96s.59,9.16-3.16,5.96ZM344.59,352.39c-2.47-.62-2.26,2.38-.56,1.86.62-.19.63-1.31.56-1.86Z"/>
    </g>
    <g>
      <path class="st2" d="M353.93,363.6c-.18,22.64-37.57,23.88-44.66,2.25-.58-1.76-1.74-6.77-1.65-8.44.05-.97,5.04-5.24,2.22-6.71-1.36-.71-1.97,1.53-2.8,2.45-2.87,3.18-6.43,4.88-10.8,4.44-12.42-1.27,1.51-12.6,7.55-13.32,1.74-.21,1.09.6,2.3,1.61,2.92,2.43,7.11,2.94,10.58,1.58,1.1-.43,3.68-2.51,4.14-2.47.51.05,3.83,2.26,5.18,2.67,4.9,1.48,10.16.26,13.94-3.1.43-.39.74-1.37,1.16-1.47.38-.09,5.22,2.25,6.86.73,1.97,4.45,4.21,8.23,5.25,13.07-8.09-.56-6.9,9.06.75,6.73ZM294.14,353.51c.28,2.2,5.38,1.67,6.99,1.2,1.87-.55,5.05-3.55,5.32-5.53.4-2.9-1.29-1.87-2.98-1.1-3.18,1.45-6.2,3.86-9.33,5.44ZM343.2,357.51c3.75,3.2,7.49-4.19,3.16-5.96s-5.62,3.86-3.16,5.96ZM322.17,356.12c-1.19,5.63,6.56,6.68,6.23.99-.15-2.54-3.26-4.52-5.11-2.48,3.09.39,1.21,3.41-1.12,1.5ZM319.47,360.31c-6.19.48-5.31,8.38.61,8.12,5.56-.24,6.08-8.64-.61-8.12ZM340.85,370.32c.17-1.12-.28-2.87.06-3.86.31-.89,3.86-2.11,2.75-4.35s-3.02,1.25-4.52,1.48c-1.83.29-4.77-2.66-5.35-.87-.62,1.91,1.24,2.97,2.68,3.58.54.23,1.69.24,1.75.3.16.16-.18,3.67.39,4.47-1.56.21-3.63-.3-4.84-1.32s-1.93-4.47-3.75-3.35c-2.28,1.39,1.58,5.66,3.25,6.48,2.93,1.44,7.66,1.13,10.47-.61,1.82-1.12,4.72-3.82,2.13-5.66-2.04.76-2.41,3.91-5,3.72Z"/>
      <path class="st2" d="M358.79,382.66l-8.59-4.3c2.47-2.34,4.9-4.95,5.6-8.41,3.73,3.19,3.81,8.23,2.98,12.71Z"/>
      <path class="st6" d="M353.18,356.87c.52,2.43.77,4.22.75,6.73-7.64,2.33-8.83-7.28-.75-6.73Z"/>
      <g>
        <path class="st11" d="M330.01,310.15c.12,0,.25,0,.37,0,1.15.05,2.31-.1,3.46.09,4.57.76,7.51,8.14,9.66,11.83,6.91-1.6,13.14-1.92,19.5,1.61,11.05,6.13,17.2,21.52,10.79,33.07-1.73,3.12-7.39,8.34-11.09,8.34h-5.79c-.42,2.45,1.65,3.41,2.85,5.18,1.83,2.7,2.59,5.59,2.4,8.85-.09,1.53-.95,3.52-.7,4.75.16.81,2.39,3.3,2.99,4.88,1.17,3.03,1.67,7.67,1.42,10.9-.15,1.92-1.53,5.41-1.47,6.7.05.96.85,2.61,1,3.87.55,4.85-1.11,8.74-4.56,12.05-.66.64-2.16,1.31-2.46,1.75-2.72,4.12-1.69,9.22-2.27,14.08-.26,2.14-2.08,7.96-2.06,9.02,0,.46.61.96.59,1.82-.01.59-1.11,4.78-1.4,5.36-.44.89-1.58,1.26-1.61,1.46-.17,1.06,1.5,2.95,1.9,3.87.51,1.17,1.9,4.37.5,5.26-.79.5-4.79,1.02-5.92,1.09-3.06.19-10.77-.35-13.25-2.07-1.76-1.22-1.43-3.56-1.51-5.4-.13-3.1-.44-1.21-1.88-2.79-1.83-2-1.09-5.55-1.31-7.73s-1.68-5.01-1.7-7.38c-3.4-.62-2.53.68-3.41,3.05-.63,1.7-1.86,3.61-2.35,5.13-.9,2.8-.37,5.39-2.59,7.88-.89,1-1.12.07-1.32,1.84-.19,1.68-.06,5.87-1.1,6.93-2.02,2.05-10.42,1.68-13.22,1.23-1.53-.25-5.61-.85-5.86-2.77-.05-.35.29-3.66.38-4.28.11-.77,1.05-1.91.77-3.1-.09-.38-.87-.45-1.15-.8-.84-1.04-1.76-5.13-1.78-6.49-.01-.97.57-1.36.57-2.06,0-1.38-1.11-5.01-1.35-6.84-.33-2.49-.28-5.14-.58-7.64-3.57-.37-9.49-2.41-10.5-6.32-.33-1.26.05-2.46-.46-3.66-.4-.94-2.24-2.31-3.02-3.34-3.37-4.47-3.89-8.31-2.22-13.68.22-.72,1.31-2.27,1.28-2.7-.02-.33-2.14-3.67-2.46-4.88-.84-3.14-.57-7.04.78-10.01.55-1.22,3.14-4.31,3.18-4.92.02-.24-1.2-3.39-1.32-4.53-.34-3.39.43-6.79,1.82-9.85-15.04-4.73-17.38-25.15-8.21-36.43,7.1-8.74,17.66-11.9,28.39-8.05,1.66-5.61,1.71-9.69,7.85-11.78s13.3-2.63,19.44-2.43ZM318.8,313.52c-.12.01-.25-.01-.37,0-.84.09-1.33.29-1.87.37-1.59.23-3.31.29-4.86.75-1.28.38-3.14,1.14-3.91,2.26-.6.86-3.09,8.32-2.75,8.89.08.13,2.07,1.12,2.55,1.56.84.78,1.77,2.07,2.46,3,10.78-2.67,21.93-4.29,33.04-4.5-.84-1.2-1.4-2.53-2.24-3.73-.27-.38-.38-.69-.75-1.12-.74-1.92-3.78-7.35-5.52-8.12-3.25-1.45-12.13-.23-15.78.65ZM351.69,323.61c-1.14.06-5.95.66-5.98,2.05,1.99.07,4.02.4,5.98.56,1.23.1,2.5-.07,3.74,0,2.8.94,5.62-.16,6.26,3.64.48,2.85.27,4.66-2.38,6.03-.69.36-3.38,1.04-3.5,1.17-.67.71,2.63,1.95,2.99,2.24.41.32.83.97,1.49,1.49,1.57,1.23,4.81,3.31,5.98,4.48.18.18,1.46,2.11,1.49,2.24.49,2.03-.49,5.11-2.24,6.35-.27.19-2.44,1.43-2.62,1.49-2.01.69-4.61.24-6.73.38l1.12,6.35c2.75.06,5,.23,7.59-.83.4-.17.54-.61.63-.66,1.28-.7,1.09-.5,2.24-1.49,3.43-2.95,5.2-6.64,5.61-11.21.06-.69.02-1.53,0-2.24-.12-4.38-1.5-7.93-3.74-11.59-.53-.86-.84-1.43-1.49-2.24-3.31-4.14-7.43-6.9-12.71-7.85-1.38-.25-2.26-.45-3.74-.37ZM276.2,335.19c-.58.81-1,1.3-1.49,2.24-2.2,4.21-3.08,8.8-2.62,13.45.09.95.18,1.36.37,2.24,1,4.66,2.35,7.78,6.35,10.46,1.22.81,1.17.62,2.24,1.12.1.05.33.64.84.83,5.11,1.85,10.25.2,12.61-4.75-2.98-1.66-6.65-.4-9.71-2.43-.09-.06-1.44-1.41-1.49-1.49-.33-.52-1.41-3.83-1.49-4.48-.08-.59-.06-1.64,0-2.24.11-1.06,1.3-4.78,1.87-5.61.09-.13,2.06-2.09,2.24-2.24,1-.8,3.64-2.05,4.86-2.24.71-.11,1.84-.02,2.62,0,1.77.04,2.8.14,4.48.75.63.23,1.05.88,2.24,1.12.59.12,5.65-.87,6.44-1.22,4.66-2.06,2.7-8.08-.46-10.74-1.37-1.15-1.5-.88-2.62-1.49-3.13-1.74-5.1-2.76-8.97-2.99-.79-.05-1.84-.07-2.62,0-6.35.61-12.08,4.64-15.7,9.72ZM359.16,329.22c-.26-.4-8.33-1.09-9.51-1.14-10.14-.46-22.47,1.05-32.41,3.12-1.18.25-5.47.76-5.55,1.93-.02.34.44,2.44.58,2.44,8.01-1.71,16.13-3.28,24.29-4.11,7.15-.73,14.86-1.32,22-.78.56-.14.83-1.13.61-1.46ZM354.68,334.82c1.74.12,3.67-.28,4.85-1.68,0-.84-4.67-.36-4.85-.19-.1.1.07,1.46,0,1.87ZM352.07,332.95c-6.02-.01-12.09.47-18.08,1.17-2.87.34-20.99,3-22.09,4.07-.56.55-1.12,2.44-1.9,3.33-.73.84-1.92,1.18-2.41,2.26,2.99,1.8,6.04,2.13,9.17.39,1.49-.83,2.23-2.3,3.73-3.02,4.11,3.96,11.07,5.88,16.07,2.25,1.51-1.1,3.61-5,4.18-5.17,2.62-.78.54,2.45,2.63,2.83,5.74,1.05,9.54-2.28,8.7-8.12ZM352.06,345.28c.65,1.34,1.21,3.03,1.87,4.48.07.16.33.28.37.37.05.1-.05.27,0,.37.3.7.08,2.14,1.38,2.54,2.25.69,10.36-1.06,9.31-4.42-.66-2.12-9.24-6.69-11.35-7.03-1.48-.24-3.09,1.34-2.43,2.84.2.46.79.73.84.84ZM297.13,343.42c-6.11-2.44-13.02,1.77-12.33,8.59.9-.19,3.48.29,4.05-.06.12-.08.83-1.89,1.36-2.56,1.92-2.42,4.6-4.01,6.92-5.97ZM353.18,356.87c-1.04-4.85-3.28-8.62-5.25-13.07-1.64,1.52-6.48-.82-6.86-.73-.42.1-.73,1.08-1.16,1.47-3.78,3.36-9.04,4.58-13.94,3.1-1.35-.41-4.67-2.62-5.18-2.67-.46-.04-3.04,2.04-4.14,2.47-3.47,1.36-7.66.85-10.58-1.58-1.21-1.01-.56-1.82-2.3-1.61-6.04.72-19.97,12.06-7.55,13.32,4.38.45,7.93-1.26,10.8-4.44.83-.92,1.45-3.16,2.8-2.45,2.82,1.47-2.17,5.74-2.22,6.71-.09,1.67,1.07,6.68,1.65,8.44,7.09,21.63,44.48,20.4,44.66-2.25.02-2.5-.23-4.3-.75-6.73ZM289.28,357.24c-1.98-2.8.79-5.2-4.11-4.48.09,2.24,1.89,4.11,4.11,4.48ZM304.97,358.74l-7.09,2.06c-1.71,3.44-3.65,6.22-7.49,7.46-1.14.37-3.79.49-4.29.94-1,.87-2.4,5.49-2.45,6.92-.07,2.09,1.94,7.38,1.84,7.77-.18.69-2.73,3.29-3.38,4.5-1.57,2.93-1.92,6.11-.95,9.31.42,1.38,2.87,4.6,2.88,4.95.02.74-1.21,2.05-1.56,2.93-1.96,4.89-1.23,9.59,2.32,13.52.68.75,2.58,1.94,2.81,2.45.32.73-.33,2.01-.19,3.13.38,3.05,5.01,5.67,7.83,5.27-1.26-1.65-2.11-3.53-2.71-5.51-1.67-5.5-1.42-9.73-.53-15.3.25-1.59,1.3-4.2,1.36-5.38.06-1.31-1.32-4.03-1.49-5.93-.33-3.82.12-8.2,1.82-11.66,3.06-6.23,11.54-8.79,17.63-10.96-3.75-4.7-6.14-10.36-6.35-16.44ZM358.79,382.66c.82-4.48.75-9.52-2.98-12.71-.7,3.46-3.13,6.07-5.6,8.41l8.59,4.3ZM321.74,388.58l3.78-5c-.01-.35-3.71-1.19-4.47-1.5-1.99-.8-4.22-2.12-5.95-3.39-.97-.7-2.4-3.15-3.61-1.29-.29.45,1.38,2.88,1.78,3.49.71,1.08,2.03,2.93,2.9,3.83.61.63,3.87,3.37,4.5,3.72.33.18.73.33,1.07.13ZM313.19,388.63c.6-.76-2.73-8.23-3.71-9.17-1.26-1.21-2.06-.05-3.38.21,1.72,3.4,3.31,7.38,7.1,8.96ZM345.34,381.35c-.46,1.51.34,5.13,0,6.91.7.16.72-.24,1.06-.62,1.58-1.82,2.53-4.9,1.52-7.19-.49-.33-2.42.37-2.58.9ZM302.36,408.07c2.93-4.52,6.13-8.48,10.46-11.78,0-1.04-1.53-.35-2.4-.96-1.83-1.28.41-3.52,1.65-4.27-.89-1.03-2.23-1.47-3.18-2.42-1.2-1.19-3.77-5.17-4.66-6.74-.18-.32.42-1.37-.54-1.1-.81.23-3.3,1.72-4.07,2.29-8.31,6.16-5.62,20.92,1.43,27.21.7-.58.84-1.52,1.31-2.24ZM361.03,406.95c4.73-10.55.98-21.47-10.08-25.41-.23,5.16-4.43,9.03-4.45,14.17,5.54,1.81,9.66,6.42,13.49,10.62.33.36.34.8,1.05.63ZM337.86,383.41c-.35.39,2.33,3.06,2.79,3.37,1.76,1.23,2.15-3.34,2.06-4.5l-4.85,1.12ZM334.87,383.78h-5.23l2.8,3.36,2.43-3.36ZM343.84,388.63c-2.85,2.85-4.81-1.31-7.23-2.59-1.27.77-2.52,3.89-4.14,3.73-1.08-.11-3.76-3.72-4.88-4.5-1.75,1.63-3.32,3.42-4.65,5.42,3.27,3.55,6.07.9,9.93.6,2.12-.16,3.71.03,5.75.51,4.34,1.02,6.51,4.29,5.22-3.17ZM318.43,389.39c-.22-.25-2.53-1.52-2.98-2.25.32,2.73-.22,3.35,2.8,2.99.32.04.22-.7.18-.74ZM322.91,393.87c-3.21-1.45-6.11-2-9.34-.19,1.37-.16,3.12,1.47,3.97,1.58.63.08,3.4-.62,4.25-.84.42-.11,1.21.02,1.12-.55ZM331.89,407.7c5.15-.31,4.97-2.37,7.32-5.58,2.17-2.97,5.84-4.57,1-6.67s-8.4-1.26-13.55-.09c2.08,3.99,4.48,7.79,5.24,12.33ZM329.58,409.88c1.04-1.67-3.6-11.42-5.16-12.85-1.24-1.13-4.97.48-6.65.85-2.97.65-2.71-.27-5.5,1.97-3.69,2.97-6.68,7.55-8.75,11.77,8.25,6.06,17.75,1.59,26.07-1.74ZM337.49,408.82c-.71.48-2.8.97-3.74,1.13.51.94,2.05,1.14,2.99,1.49,6.6,2.47,17.51,5.42,22.37-1.36.19-1-5.55-6.83-6.66-7.8-1.02-.88-5.49-4.37-6.56-4.2-.54.08-1.06,1.97-1.49,2.51-.66.83-1.92,1.43-2.78,2.45-1.25,1.48-2.57,4.75-4.12,5.78ZM297.87,411.43c.23-.2-2.38-3.95-2.98-4.11l-.38,4.11h3.36ZM359.17,420.03c2.72-2.15,3.72-5.96,3.36-9.34-.56.61-3.2,3.17-3.3,3.62-.23.99.87,4.14-.05,5.72ZM341.22,415.55c-2.76-.22-7.55-3.27-9.94-3.36-.7-.02-4.51,1.53-4.63,2.05-.16.66.93,1.03,1.35,1.26,2.37,1.24,7,3.32,9.48,2.09l3.74-2.04ZM325.9,417.04c-.58-.31-1.52-1.8-2.41-1.85-.61-.04-4.19,1.46-5.36,1.74-4.93,1.16-8.25.88-12.98-1-1.27-.5-3.31-1.97-4.18-2.17-2.04-.47-4.98.78-7.21.29-.23,4.2.45,8.45,2.06,12.33.52,1.25,2.14,3.47,2.34,4.38.4,1.79-.09,4.34.08,6.27.15,1.7,1.21,10.13,2.25,10.83.45.3,1.6.41,2.23.57,5.31,1.41,11.14,1.51,16.55.67,1.92-1.11,4.4-11.22,5.11-11.72s1.64.46,2.47.57c2.54.34,6.28-.58,8.77-1.28,1.08-.31,4.48-2.45,4.83-.33.26,1.57-3.82,2.45-4.84,2.76s-3.71.71-4.27,1.08.72,6.5,1.31,7.29c.83,1.1,2.21.81,3.33.97,5.25.76,10.46.22,15.63-.81.48-2.07,1.08-4.12,1.45-6.22s1.36-9.09.81-10.68c-.2-.58-.98-.53-1.05-.63-.18-.25,2.14-3.86,2.51-4.74.95-2.29,1.32-4.38,1.58-6.82.1-.9,1.04-2.12-.2-2.99-2.88,1.55-5.41,1.56-8.6,1.51-3.44-.06-2.25-.77-5.78.73-1.35.57-5.98,3.01-6.88,2.98s-8.42-3.1-9.57-3.72ZM337.49,451.05c-.07,0-.3-.32-.59-.34-1.43-.12-2.85-.15-4.26-.4-.11,4.54.52,4.05,4.11,4.48,1.64.2,2.8.47,4.67.37s8.13-.87,9.65-1.49c.56-.23.62-2.88,1.01-3.55.02-.46-7.66.88-8.42.93-1.87.11-4.3.12-6.16,0ZM303.85,454.78c3.55.83,5.61,1.39,9.53,1.12s6.03-.35,6.17-4.85c-5.33,1.2-11.07.92-16.44,0-.55-.1-2.98-1.14-3.36-.75-.23,4.91.88,3.73,4.11,4.48ZM341.04,462.63c2.99.32,6.96,0,10.09,0,.4,0,.55-.66.41-1.15-.34-1.18-2.33-3.22-2.51-4.78l-12.66,1.06c-.75,3.83,1.32,4.51,4.67,4.86ZM315.81,458.15c-4.52.62-8.64.19-13.08-.75l-1.12,5.98,6.35,1.12c-.05-1-.03-3.64,1.32-3.76,2.37-.22,1.47,3.19,1.67,3.39.16.16,4.32-.22,4.48-.38.2-.2.38-4.86.38-5.6Z"/>
        <path class="st8" d="M325.9,417.04c1.15.63,8.67,3.69,9.57,3.72s5.53-2.4,6.88-2.98c-.04.92.5,1,1.19,1.24,4.01,1.43,9.48,1.12,13.39-.5-.27,2.45-.63,4.53-1.58,6.82-.36.88-2.69,4.48-2.51,4.74.07.09.85.05,1.05.63.55,1.59-.46,8.62-.81,10.68s-.96,4.15-1.45,6.22c-5.16,1.03-10.38,1.57-15.63.81l-.37-9.34c1.01-.31,5.1-1.19,4.84-2.76-.36-2.12-3.75.02-4.83.33-2.49.71-6.23,1.62-8.77,1.28-.83-.11-1.73-1.09-2.47-.57s-3.19,10.61-5.11,11.72c-5.41.84-11.24.74-16.55-.67-1.55-4.98-2.38-10.27-1.84-15.48.08-.73.75-1.7.64-2.22-.07-.35-1.23-1.47-1.56-2.15-1.94-3.9-2.74-7.93-2.47-12.29,3.33.59,6.26,2.83,9.7,3.57,6.51,1.41,12.75-.23,18.7-2.82Z"/>
        <path class="st2" d="M329.58,409.88c-8.32,3.34-17.82,7.81-26.07,1.74,2.07-4.22,5.07-8.8,8.75-11.77,2.79-2.24,2.53-1.32,5.5-1.97,1.68-.37,5.41-1.98,6.65-.85,1.56,1.43,6.21,11.18,5.16,12.85Z"/>
        <path class="st14" d="M361.03,406.95c-.71.17-.72-.26-1.05-.63-3.83-4.19-7.95-8.81-13.49-10.62.03-5.13,4.22-9.01,4.45-14.17,11.06,3.94,14.81,14.87,10.08,25.41Z"/>
        <path class="st14" d="M304.23,381.91c.89,1.57,3.45,5.55,4.66,6.74.96.94,2.3,1.38,3.18,2.42-1.24.75-3.47,2.99-1.65,4.27.87.61,2.41-.08,2.4.96-4.33,3.29-7.53,7.26-10.46,11.78-5.16-5.56-6.98-14.94-2.69-21.56,1.26-1.95,3.17-2.86,4.56-4.6Z"/>
        <path class="st2" d="M336.74,411.43c.9-.72,2.33-1.98.75-2.62,1.55-1.03,2.88-4.3,4.12-5.78.86-1.02,2.12-1.63,2.78-2.45.44-.55.95-2.43,1.49-2.51,1.07-.16,5.54,3.32,6.56,4.2,1.11.96,6.86,6.8,6.66,7.8-4.86,6.78-15.76,3.84-22.37,1.36Z"/>
        <path class="st17" d="M325.9,417.04c-5.96,2.59-12.19,4.23-18.7,2.82-3.44-.74-6.37-2.98-9.7-3.57-.27,4.37.53,8.4,2.47,12.29.34.68,1.49,1.8,1.56,2.15.1.52-.57,1.49-.64,2.22-.54,5.21.29,10.5,1.84,15.48-.63-.17-1.78-.27-2.23-.57-1.04-.7-2.1-9.13-2.25-10.83-.17-1.93.32-4.48-.08-6.27-.21-.91-1.82-3.13-2.34-4.38-1.61-3.88-2.29-8.13-2.06-12.33,2.23.49,5.17-.76,7.21-.29.87.2,2.91,1.67,4.18,2.17,4.73,1.88,8.05,2.16,12.98,1,1.17-.27,4.75-1.78,5.36-1.74.89.05,1.83,1.54,2.41,1.85Z"/>
        <path class="st10" d="M331.89,407.7c-.76-4.55-3.16-8.34-5.24-12.33,5.15-1.18,8.49-2.11,13.55.09s1.17,3.7-1,6.67c-2.35,3.21-2.17,5.27-7.32,5.58Z"/>
        <path class="st18" d="M302.36,408.07c-.46.72-.6,1.65-1.31,2.24-7.05-6.29-9.74-21.05-1.43-27.21.77-.57,3.26-2.06,4.07-2.29.96-.27.36.79.54,1.1-1.39,1.73-3.3,2.65-4.56,4.6-4.29,6.62-2.47,16.01,2.69,21.56Z"/>
        <path class="st14" d="M343.84,388.63c1.29,7.46-.88,4.2-5.22,3.17-2.04-.48-3.63-.67-5.75-.51-3.85.3-6.66,2.95-9.93-.6,1.32-1.99,2.9-3.79,4.65-5.42,1.12.77,3.79,4.39,4.88,4.5,1.62.16,2.87-2.96,4.14-3.73,2.42,1.28,4.38,5.44,7.23,2.59Z"/>
        <path class="st10" d="M341.04,462.63c-3.36-.35-5.43-1.03-4.67-4.86l12.66-1.06c.18,1.56,2.18,3.6,2.51,4.78.14.49,0,1.15-.41,1.15-3.13,0-7.1.32-10.09,0Z"/>
        <path class="st10" d="M315.81,458.15c0,.74-.18,5.4-.38,5.6-.16.16-4.32.54-4.48.38-.2-.2.7-3.61-1.67-3.39-1.34.12-1.36,2.76-1.32,3.76l-6.35-1.12,1.12-5.98c4.44.93,8.56,1.36,13.08.75Z"/>
        <path class="st14" d="M321.74,388.58c-.34.2-.75.04-1.07-.13-.64-.35-3.89-3.09-4.5-3.72-.87-.89-2.19-2.75-2.9-3.83-.4-.61-2.07-3.04-1.78-3.49,1.2-1.86,2.64.58,3.61,1.29,1.74,1.27,3.96,2.58,5.95,3.39.76.31,4.46,1.15,4.47,1.5l-3.78,5Z"/>
        <path class="st5" d="M303.11,451.05c5.37.93,11.12,1.2,16.44,0-.14,4.5-2.25,4.58-6.17,4.85s-5.98-.28-9.53-1.12l-.75-3.74Z"/>
        <path class="st5" d="M337.49,451.05c1.87.12,4.29.11,6.16,0,.76-.05,8.44-1.38,8.42-.93-.39.67-.46,3.32-1.01,3.55-1.52.62-7.79,1.39-9.65,1.49s-3.02-.17-4.67-.37c.42-1.53-1.51-4.21.75-3.74Z"/>
        <path class="st8" d="M341.22,415.55l-3.74,2.04c-2.47,1.22-7.11-.86-9.48-2.09-.43-.22-1.52-.6-1.35-1.26.13-.51,3.94-2.07,4.63-2.05,2.39.08,7.18,3.14,9.94,3.36Z"/>
        <path class="st17" d="M356.92,418.53c-3.91,1.61-9.37,1.93-13.39.5-.69-.25-1.23-.33-1.19-1.24,3.53-1.5,2.34-.79,5.78-.73,3.18.05,5.72.04,8.6-1.51,1.23.87.3,2.09.2,2.99Z"/>
        <path class="st17" d="M335.99,448.43c-1.12-.16-2.5.13-3.33-.97-.6-.79-1.88-6.92-1.31-7.29s3.26-.78,4.27-1.08l.37,9.34Z"/>
        <path class="st17" d="M313.19,388.63c-3.79-1.59-5.38-5.56-7.1-8.96,1.33-.26,2.12-1.42,3.38-.21.98.94,4.32,8.41,3.71,9.17Z"/>
        <path class="st17" d="M345.34,381.35c.16-.53,2.1-1.23,2.58-.9,1.01,2.29.06,5.37-1.52,7.19-.34.39-.36.78-1.06.62.34-1.79-.46-5.4,0-6.91Z"/>
        <path class="st2" d="M359.17,420.03c.93-1.58-.18-4.72.05-5.72.1-.45,2.75-3.02,3.3-3.62.36,3.38-.64,7.2-3.36,9.34Z"/>
        <path class="st8" d="M337.49,451.05c-2.26-.47-.33,2.2-.75,3.74-3.59-.44-4.22.06-4.11-4.48,1.41.25,2.83.29,4.26.4.3.02.53.34.59.34Z"/>
        <path class="st10" d="M322.91,393.87c.09.57-.7.44-1.12.55-.86.22-3.62.92-4.25.84-.85-.11-2.59-1.74-3.97-1.58,3.24-1.81,6.14-1.25,9.34.19Z"/>
        <path class="st8" d="M303.11,451.05l.75,3.74c-3.23-.76-4.34.43-4.11-4.48.38-.4,2.81.65,3.36.75Z"/>
        <path class="st14" d="M337.86,383.41l4.85-1.12c.08,1.16-.31,5.72-2.06,4.5-.46-.32-3.14-2.99-2.79-3.37Z"/>
        <polygon class="st2" points="334.87 383.78 332.44 387.13 329.64 383.78 334.87 383.78"/>
        <path class="st18" d="M297.87,411.43h-3.36s.38-4.11.38-4.11c.6.16,3.21,3.91,2.98,4.11Z"/>
        <path class="st16" d="M337.49,408.82c1.58.64.16,1.9-.75,2.62-.94-.35-2.47-.55-2.99-1.49.93-.16,3.02-.65,3.74-1.13Z"/>
        <path class="st17" d="M318.43,389.39s.14.79-.18.74c-3.02.36-2.48-.26-2.8-2.99.46.73,2.77,2,2.98,2.25Z"/>
      </g>
      <path class="st11" d="M340.85,370.32c2.59.19,2.96-2.96,5-3.72,2.59,1.84-.31,4.54-2.13,5.66-2.8,1.73-7.54,2.04-10.47.61-1.67-.82-5.53-5.09-3.25-6.48,1.83-1.11,2.53,2.33,3.75,3.35s3.28,1.53,4.84,1.32c-.56-.8-.23-4.31-.39-4.47-.06-.06-1.21-.07-1.75-.3-1.44-.62-3.3-1.67-2.68-3.58.58-1.79,3.52,1.16,5.35.87,1.51-.24,3.45-3.67,4.52-1.48s-2.44,3.46-2.75,4.35c-.34.99.11,2.74-.06,3.86Z"/>
      <path class="st6" d="M319.47,360.31c6.69-.52,6.17,7.88.61,8.12-5.92.26-6.8-7.64-.61-8.12Z"/>
      <path class="st11" d="M322.17,356.12c2.33,1.91,4.2-1.11,1.12-1.5,1.86-2.04,4.97-.06,5.11,2.48.33,5.7-7.42,4.64-6.23-.99Z"/>
      <path class="st0" d="M344.59,352.39c.06.55.06,1.67-.56,1.86-1.7.52-1.9-2.48.56-1.86Z"/>
    </g>
  </g>
  <g>
    <path class="st11" d="M482.49,460.02c.26-.7,1.58-2.7,1.47-3.14-.08-.34-1.13-.73-1.55-1.44s-1.27-4.05-1.38-4.99c-.54-4.56-1.75-9.09-2.26-13.78-.36-3.28.49-7.95-1.86-10.47-.69-.74-2.24-1.29-3.18-2.05-3.96-3.24-5.61-7.75-5.01-12.84.2-1.72,1.69-4.13,1.76-4.96.03-.33-1.43-2.6-1.72-3.38-.85-2.29-1.08-4.92-.79-7.35.13-1.14,1.48-4.36,1.38-4.85-.06-.32-3.57-4.3-4.18-5.13-1.42-1.93-6.79-9.03-7.16-10.79-.88-4.19-3.54-7.14-5.84-10.97-1.06-1.76-1.91-4.39-2.98-5.99s-3.24-3.38-4.58-5.14-4.87-6.15-5.54-7.91c-.59-1.55-.33-3.93.93-5.02.39-.34,1.22-.35,1.34-.53.37-.52-.41-2.74,1.15-4.27,1.94-1.9,4.68-.38,4.88-.54.16-.13.39-2.44,2.11-3.32,2.41-1.23,4.02.03,5.57,1.81l3.72,5.99c3.04-2.37,4.18-6.16,6.73-8.97,5.95-6.58,15.2-8.3,23.51-5.65,3.01-3.82,5.2-11.64,10.3-12.87,5.53-1.33,23.5-.08,28.03,3.4,2.31,1.78,3.46,7.16,4.51,9.88,9.67-3.33,18.03-1.63,25.96,4.49.57.44,1.44,1.69,1.96,1.82.81.21,2.3-1.75,4.99-.91,1.83.57,1.97,2.53,2.25,2.79.31.29,2.79-1,4.84.58s1.36,4.09,1.51,4.28c.09.11,1.53.44,2.22,1.33,2.53,3.27-.73,6.76-2.54,9.43-2.14,3.15-5.51,6.26-7.34,9.11-1.22,1.9-2.34,5.14-3.52,7.32-2.35,4.33-3.42,4.92-4.63,9.94-.79,3.26-5.68,8.59-7.24,11.85-.27.97,1.51,3.19,2,4.4,1.1,2.71,1.52,5.48,1.11,8.41-.25,1.79-2.12,4.87-2.12,5.7s1.87,3.91,2.12,5.7c.45,3.3-.16,6.32-1.85,9.17-.84,1.42-3.15,3.29-3.47,4-.41.93-.07,2.06-.28,3.09-.49,2.4-3.9,4.71-6.06,5.52-.88.33-2.52.18-2.78.96-.14,1.9-.2,4.01-.47,5.88-.32,2.22-1.36,5.65-1.42,7.58-.07,2.31.66,5.89-.81,8.12-.43.65-1.6.9-1.77,1.6-.21.87.6,2.08.69,2.74.6,4.3,1,5.59-3.5,6.78-4.76,1.26-9.91.89-14.45-.97-.74-.76-.82-5.47-1.11-6.93-.4-2-.45-.73-1.69-1.86-2-1.81-1.61-5.6-2.22-7.87-.2-.75-.95-1.63-1.23-2.5-.32-.97-1.26-4.69-1.54-5.11-.36-.53-2.15-.41-2.59.41-.19.36-1.44,6.14-1.47,6.75-.1,2.22.86,5.91-1.05,7.92-1,1.05-1.84.2-2.04,2.26-.14,1.44.15,4.23-.72,5.45-2.02,2.81-16.98,3.22-19.58,1.31-1.33-.98.02-3.98.49-5.26ZM515.38,314.26c-1.17-.41-3.04-.7-4.28-.76-2.49-.13-11.04-.35-12.8.65-1.41.8-5.09,8.35-6.08,10.2-.22.41-2.15,3.11-1.87,3.36,1.23-.04,2.28-.42,3.55-.4,3.95.07,8.73.42,12.7.78,5.77.52,11.51,1.52,17.19,2.61,1.42-.12,2.3-2.52,2.81-2.99s2.48-.67,2.62-2.06c.06-.61-1.58-5.38-1.97-6.25-1.27-2.91-2.22-3.16-5.14-4.01-2.32-.68-4.33-.93-6.73-1.12ZM478.01,326.22c-5.21.94-8.5,3.24-11.59,7.47-.59.81-1.02,1.3-1.49,2.24-.68,1.34.73.67,1.51,2.04,1.11,1.94-.64,4.36-.74,6.43s.88,4.05,2.4,5.36c.69-2.54,3.83-3.41,5.21-4.87.45-.47.58-1.44.95-1.85.22-.24,1.31-1.34,1.49-1.49.43-.34,3.06-1.52,2.99-1.68-4.16-2.3-7.2-.8-6.72-6.72.36-4.43,1.7-3.6,5.22-4.3.89-.18,2.25-.65,2.99-.75.57-.07,7.49-.14,7.48-.56-.02-.83-.68-.81-1.25-1-1.91-.62-4.24-.75-6.23-.68-1.02.04-1.41.22-2.24.37ZM530.33,329.21c-.77.46-.9.3-1.87,1.12-3.54,3.01-5.5,9.25,0,11.03,1.16.37,5.46,1.18,6.36.93,1.2-.33,1.7-1.06,1.87-1.12.68-.24,3.63-.68,4.48-.75.73-.05,1.92-.09,2.62,0,.74.1,4.32,1.66,4.48,1.49-3.04-6.14,3.94-7.45,7.29-3.37l2.76-4.61c-4.2-4.69-9.65-7.78-16.03-8.09-.72-.03-1.52-.04-2.24,0-3.93.22-6.54,1.44-9.72,3.36ZM522.85,332.95c-.46-.52-12.01-2.01-13.69-2.2-9.76-1.1-23.2-1.58-32.79.39-1.45.3-2.01,0-1.73,1.81,11.78-.87,23.91-.28,35.64,1.18,4.08.51,8.11,1.52,12.2,1.81-.24-.62.56-2.78.38-2.99ZM563.9,342.23c-.84.49-2.58-.68-2.5-1.55.12-1.27,5.39-7.18,2.3-8.05-.48-.13-.78-.08-1.22.13-1.05.49-5.99,9.4-5.61,9.9.1.13,1.73.56,2.61,1.69,1.21,1.54,2.34,5.05-.25,5.74-2,.53-.84-2.01-.88-2.73-.08-1.62-1.78-2.07-2.55-3.06-.99-1.25-2-4.73-3.68-5.29-3.42-1.13-.35,3.67-.14,5.37.17,1.34-.5,3.99-.17,4.64.37.74,4.91,3.6,5.93,4.18,1.17.66,5.12,2.86,6.21,2.38.72-.32,4.8-5.74,5.55-6.81.83-1.18,4.2-5.99,4.18-7.05,0-.47-.25-.64-.57-.91-1.8-.5-5.26,7.42-7.12,4.49-1.02-1.61,5.84-7.51,4.53-9.37-3.25-1.98-5.36,5.56-6.63,6.31ZM441.38,341.92c-.25,1.88,1.3,3.46,2.31,4.97s6.82,9.31,8.02,9.54c2.09-.65,11.3-5.97,11.63-7.65.1-.52-.69-2.54-.69-3.69,0-1.34,1.84-5.91.58-6.17-1.75-.36-3.85,4.36-4.57,5.51-.54.87-1.84,1.88-2.15,2.74-.37,1.01,1.08,3.22-1.11,2.98-.95-.1-1.28-1.25-1.34-2.08-.21-3.24,3.24-4.86,3.3-5.59.03-.45-3.85-7.11-4.45-7.79-1.66-1.89-3.28-1.64-2.92,1.03.2,1.55,4.66,7.15,1.28,6.92-2.11-.14-4.14-7.91-7.3-5.34-.53,2.48,6.73,7.88,4.48,9.44-1.91,1.32-4.65-5.52-7.06-4.82ZM479.5,334.82c-1.32-.11-2.63.15-3.92.38-.28.05-1.32-.24-.94.54.32.66,4.26,1.93,4.48,1.69l.37-2.62ZM492.17,342.63c.23-.28-.4-3.71,2.04-2.91.54.18,1.85,3.32,2.88,4.24,3.68,3.29,10.6,3.18,14.53.37.83-.59,1.95-2.33,2.84-2.43,1.23-.13,1.29,1.04,2.02,1.72,3.12,2.89,7.68,3.45,10.85.36-2.79-1.33-3.63-3.65-5.5-5.71-13.11-2.26-26.4-3.44-39.72-3.45-.79,5.78,1.95,8.59,7.68,8.24.41-.03,2.28-.3,2.37-.43ZM538.18,344.53c2-.24,7.09,5.48,7.71,5.58.9.16,3.09-2.91,2.58-4.07-1.2-2.71-7.35-3.2-9.77-2.3-.51.19-.64-.12-.52.78ZM483.24,347.53c.6-1.49,2.47-2.66-.74-3.59-.77-.22-7.52,3.35-8.65,4.1-6.97,4.58-1.21,8.27,4.72,7.7,2.74-.26,2.02-.87,2.81-2.98.64-1.73,1.18-3.53,1.87-5.23ZM482.87,358.74c-.45,2.56-.81,4-.75,6.73.47,21.67,33.13,22.94,42.67,5.86,1.54-2.76,4.37-11.28,3.11-14.07-.39-.86-4.9-4.26-2.43-5.82,1.35-.85,2.87,2.54,3.75,3.38,2.35,2.24,8.55,4.26,11.57,2.99.64-.27,3.28-3.84,3.24-4.47-.06-.96-3.31-3.93-4.23-4.61-1.34-.99-8.72-5.11-9.81-4.14-.19.17-.32,1.51-1.78,2.52-4.12,2.82-10.24,1.88-13.76-1.45-5.1,4.25-12.21,5.23-17.88,1.45-.81-.54-1.88-2.13-2.66-2.16-.69-.03-3.03.96-4.19,1.08-.99.1-2.02-.57-2.55,0-2.09,2.28-3.76,9.63-4.3,12.72ZM549.01,352.01c-.2.22-.59.36-.9.76-1.02,1.31-5.17,6.76-5.62,7.85-.85,2.06,2.2,3.98,3.74,5.21,2.18,1.74,4.15,2.83,6.53,4.12.65.35,1.67,1.84,2.44,1.15l7.28-12.73c-4.45-1.77-8.99-4.25-12.53-7.48-.86-.19-.76.94-.93,1.12ZM460.11,371.4c.43.25.91-.11,1.29-.3,1.4-.69,5.05-3.73,6.31-4.9.59-.55,4.17-4.41,4.26-4.74.22-.84-5.98-9.63-6.54-9.8-.69-.21-10.68,6.87-12.5,7.31-.4,1.87,6.17,10.21,7.17,12.43ZM479.5,358.36c-1.58.51-3.22.38-4.86.38l4.3,4.85.56-5.23ZM537.43,361.36c-2.24-.23-4.28-1.09-6.35-1.87-.34,3.89-1.09,8.06-2.79,11.6-.33.7-3.4,4.99-3.19,5.21.86,0,1.66.7,2.25-.16l10.08-14.78ZM462.68,373.69c-.3.26-1.51.18-1.5,1.3,4.96,8.51,11.74,15.78,17.94,23.36.95,1.71-.98,6.29-1.11,8.41.5.24,1.01-.71,1.19-1.05,1.59-2.98,1.98-7.13,3.02-10.43,1.48-4.66,3.46-9.24,4.68-14.01-1.29-1.8-3.02-2.78-4.35-4.85-1.54-2.42-1.98-5.26-3.27-7.57-.51-.91-4.45-6.1-5.16-5.97-.44.08-5.15,5.57-6.21,6.52-1.66,1.48-3.53,2.82-5.24,4.29ZM533.32,410.31c1.91.98,3.76,1.23,5.98,1.12.44-.44-2.73-10.38-2.09-11.97,5.29-7.44,12.6-15.14,16.72-23.28,1.3-2.56.56-1.87-1.56-3.24-1.47-.96-3.01-1.82-4.44-2.84-2.81-2.01-5.39-4.25-8.02-6.47-1.17.85-1.92,2.1-2.79,3.22-1.85,2.4-6.15,8.15-7.24,10.7-.7,1.64-3.64,16.21-3.48,17.63.23,2.02,2.23,8.51,3.11,10.53.96,2.2,1.59,3.47,3.8,4.6ZM524.72,378.17c-.04-.06-1.22-.4-1.48-.21-3.4,3.8-8.02,5.55-12.72,7.11.62.7,3.79,4.77,4.27,4.66,1.46-1.7,3.75-2.92,5.27-4.46.82-.83,5.17-6.41,4.66-7.11ZM524.3,395.31l1.92-14.15c-2.66,3.48-5.48,9.28-5.96,13.66-.09.84.08.41.54.53.72.18,3.1.6,3.5-.04ZM488.83,394.97c.14-3.27,2.31-7.94,2.24-11.04-.02-.93-1.5-1.2-2.22-1.65l-3.75,12.51,3.73.18ZM498.56,385.28l-5.6-1.5c-.16.22.9,5.08,1.12,5.23.24.16,1.06-.05,1.32-.35l3.16-3.38ZM506.41,385.65h-5.23c.21.86,1.98,3.25,2.78,3,.19-.06,1.93-2.61,2.45-3ZM519.49,389.01c-.41-.46-3.33,3-4.66,3.02-2.53.04-4.61-4.98-6.04-5.24-.96-.17-3.19,4.23-4.83,4.47-2.4.35-3.21-3.75-4.76-3.34-1.45.38-3.28,4.86-5.87,3.52-.65-.33-.46-1.3-1.11-1.32l-1.12,4.85,26.68.4,1.72-6.37ZM548.63,390.13c-.54-.14-.62.15-.94.36-.57.39-7.69,9.43-7.84,10.05,2.49,10.36,5.52,20.41-.38,30.31,2.29-.66,5.5-2.41,5.79-5.07.1-.93-.47-2.02-.33-2.52.06-.22,2.63-2.26,3.26-3.11,2.63-3.53,3.26-8.04,1.34-12.05-.36-.74-1.89-2.45-1.96-2.91-.05-.35,1.92-3.06,2.25-3.97,1.39-3.8.79-7.65-1.2-11.09ZM475.76,422.27c-.67-3.44-1.03-7.14-.76-10.66.22-2.89,2.26-9.24,1.87-11.55-.16-.96-3.66-5.07-4.54-5.94-.33-.32-.32-.82-1.05-.63-.51,3.21-.79,6.3.56,9.34.46,1.03,1.74,2.13,1.68,3.14s-1.43,2.7-1.77,3.88c-1.34,4.65.04,9.57,4,12.41ZM536.31,413.67c-5.1-.77-7.15-2.81-9.15-7.48-1.19-2.79-1.39-5.83-2.62-8.59-.08,2.01.94,3.8-1.17,5.18-3.53,2.32-6.7-1.01-5.74-4.81-8.88.27-17.66-.6-26.53-.37,2.44,6.34-7.09,7.41-7.05,2.05,0-.21,1.32-3.75-.04-2.43-.44.43-1.35,8.73-3.54,11.22-2.06,2.33-2.93.63-3.2,5.02s.86,9.34,2.68,13.43c.44.99,1.89,2.68,2.03,3.58.07.42-1.03,1.56-.97,3.18.17,4.77,1.69,9.84,2.63,14.5,4.81,1.7,10.66,1.71,15.69,1.03.87-.12,2.99.1,3.55-.74.3-.44,1.52-7.51,1.27-7.82-1.41-.42-3.07-.39-4.45-.78-1-.29-5.33-1.82-4.14-3.2s3.07.38,4.51.77c1.71.47,6.88,1.52,8.39,1.32,1-.13,2.05-2.45,3.1-.1.9,2.03,2.1,9.63,4.22,10.73,2.78,1.44,12.79.33,16.06-.55,1.04-.28,2.01-.28,2.53-1.4.99-2.16,1.67-8.84,1.96-11.5.17-1.53-.22-3.26.09-4.77s2.2-4.04,2.82-5.77c1.32-3.71,1.34-7.4,1.19-11.3-1.3-.38-2.86-.21-4.09-.39ZM489.34,399.31c0-.89-.72-1.61-1.61-1.61s-1.61.72-1.61,1.61.72,1.61,1.61,1.61,1.61-.72,1.61-1.61ZM520.5,398.03c-1.47.41-1.44,3.08.32,3.32,3.19.44,1.99-3.96-.32-3.32ZM530.7,451.42c-5.15,1-10.56,1.1-15.7,0,.93,1.78-.03,3.31,2.23,3.94,3.72,1.03,9.77.79,13.47-.2,3.24-.87,3.9-.74,4.12-4.67-.06-.62-3.69.85-4.12.93ZM498.19,451.79c-4.89.32-9.79-.24-14.57-1.12.55,2.08-.12,3.47,2.16,3.99,4.37,1,9.15,1.56,13.53.87,3.64-.58,3.64-.48,4.11-4.48-1.55.03-3.08.28-4.63.41-.31.03-.53.34-.6.34ZM499.31,458.15c-4.09.34-8.03-.52-12.09-.69l-3.24,5.54c1.16.94,12.35.3,14.2-.56s.91-2.51,1.12-4.3ZM532.56,463.37c-.31-1.05-.48-5.31-1.35-5.57-.48-.14-4.15.69-5.17.74-2.31.11-4.67.05-6.93-.39-.16.17.3,4.22.44,4.61.71,2.09,10.92,1.52,13.01.61Z"/>
    <path class="st2" d="M482.87,358.74c.54-3.1,2.22-10.44,4.3-12.72.53-.58,1.56.09,2.55,0,1.16-.12,3.5-1.11,4.19-1.08.78.04,1.85,1.62,2.66,2.16,5.67,3.78,12.77,2.8,17.88-1.45,3.53,3.32,9.65,4.26,13.76,1.45,1.46-1,1.59-2.35,1.78-2.52,1.08-.97,8.47,3.14,9.81,4.14.92.68,4.17,3.65,4.23,4.61.04.64-2.6,4.21-3.24,4.47-3.03,1.27-9.22-.75-11.57-2.99-.88-.84-2.41-4.23-3.75-3.38-2.47,1.55,2.04,4.95,2.43,5.82,1.27,2.8-1.56,11.31-3.11,14.07-9.54,17.09-42.2,15.81-42.67-5.86,7.07,2.25,8.5-7.38.75-6.73ZM541.17,353.88c-1.94-.48-11.06-6.89-12.33-5.61-.21,4.57,4.49,7.72,8.77,7.48.57-.03,4.35-.82,3.56-1.87ZM489.67,355.05c.28-.46.88-.61,1.34-.33s.61.88.33,1.34-.88.61-1.34.33-.61-.88-.33-1.34c-.16.06-.61.12-.75.57-1.28,4.15,4.48,5.68,5.71,2.73s-1.22-5.03-4.11-4.48c-1.09.21-.68.77-.85,1.18ZM512.66,355.46c-1.48.31-4.97,2.56-3.09,4.07.77.62,2.71-.42,3.76-.41,1.33,0,2.85,1.33,3.94.2,2.59-2.69-1.95-4.41-4.6-3.86ZM516.41,361.81c-6.16.89-4.07,9.47,2.64,7.51,5.24-1.53,2.78-8.3-2.64-7.51ZM504.07,363.69c-1.32-1.32-3.35,1.63-5.25,1.34-1.19-.18-3.32-3.62-4.59-1.83-2.13,3.02,6.79,6.18,9.56,2.83.55-.67,1-1.61.27-2.34ZM511.18,366.3c-1.37-1.37-2.83.24-3.91.58-4.47,1.42-10.06,1.84-14.52.09-1.31-.51-2.62-2.26-3.82-1.04-1.65,1.67,1.69,8.41,2.96,10.12,4.28,5.77,13.32,6.15,17.28-.15,1.15-1.83,3.71-7.89,2-9.6Z"/>
    <path class="st2" d="M492.17,342.63c-.1.12-1.96.4-2.37.43-5.73.35-8.47-2.46-7.68-8.24,13.32,0,26.61,1.19,39.72,3.45,1.86,2.05,2.7,4.38,5.5,5.71-3.17,3.1-7.73,2.54-10.85-.36-.73-.68-.79-1.85-2.02-1.72-.9.09-2.01,1.83-2.84,2.43-3.93,2.81-10.85,2.92-14.53-.37-1.03-.92-2.34-4.06-2.88-4.24-2.44-.79-1.81,2.63-2.04,2.91Z"/>
    <path class="st10" d="M563.9,342.23c1.27-.74,3.38-8.28,6.63-6.31,1.31,1.86-5.55,7.75-4.53,9.37,1.86,2.93,5.32-4.99,7.12-4.49.32.27.56.45.57.91.02,1.06-3.35,5.87-4.18,7.05-.75,1.06-4.83,6.49-5.55,6.81-1.09.48-5.04-1.72-6.21-2.38-1.03-.57-5.56-3.43-5.93-4.18-.33-.65.34-3.3.17-4.64-.21-1.7-3.28-6.5.14-5.37,1.68.56,2.69,4.03,3.68,5.29.78.99,2.47,1.43,2.55,3.06.04.72-1.12,3.26.88,2.73,2.59-.68,1.46-4.19.25-5.74-.89-1.13-2.52-1.56-2.61-1.69-.38-.5,4.56-9.41,5.61-9.9.44-.21.74-.26,1.22-.13,3.1.87-2.18,6.77-2.3,8.05-.08.87,1.66,2.04,2.5,1.55Z"/>
    <path class="st10" d="M441.38,341.92c2.42-.7,5.16,6.15,7.06,4.82,2.26-1.57-5.01-6.97-4.48-9.44,3.17-2.57,5.19,5.2,7.3,5.34,3.38.23-1.08-5.38-1.28-6.92-.35-2.67,1.26-2.92,2.92-1.03.6.69,4.49,7.35,4.45,7.79-.05.73-3.51,2.35-3.3,5.59.06.84.38,1.98,1.34,2.08,2.19.23.74-1.98,1.11-2.98.31-.86,1.62-1.87,2.15-2.74.72-1.16,2.82-5.87,4.57-5.51,1.25.26-.59,4.83-.58,6.17,0,1.15.8,3.17.69,3.69-.33,1.68-9.55,7-11.63,7.65-1.2-.23-7.02-8.05-8.02-9.54s-2.56-3.1-2.31-4.97Z"/>
    <path class="st2" d="M460.11,371.4c-1.01-2.22-7.57-10.56-7.17-12.43,1.82-.45,11.8-7.52,12.5-7.31.57.17,6.76,8.96,6.54,9.8-.09.33-3.67,4.19-4.26,4.74-1.26,1.17-4.92,4.2-6.31,4.9-.39.19-.86.56-1.29.3Z"/>
    <path class="st2" d="M552.75,369.95c-2.38-1.29-4.35-2.38-6.53-4.12-1.54-1.23-4.59-3.14-3.74-5.21.45-1.09,4.6-6.54,5.62-7.85.31-.4.71-.54.9-.76.96,1.63,9.43,6.58,9.68,7.35.46,1.41-4.61,9.14-5.94,10.59Z"/>
    <path class="st13" d="M522.85,332.95c.18.21-.62,2.36-.38,2.99-4.09-.29-8.12-1.31-12.2-1.81-11.73-1.46-23.85-2.05-35.64-1.18-.28-1.81.28-1.51,1.73-1.81,9.59-1.97,23.02-1.49,32.79-.39,1.67.19,13.22,1.68,13.69,2.2Z"/>
    <path class="st16" d="M542.29,325.85c6.38.31,11.83,3.4,16.03,8.09l-2.76,4.61c-3.35-4.08-10.33-2.77-7.29,3.37-.17.17-3.74-1.39-4.48-1.49.57-4.93.98-10.06-1.49-14.58Z"/>
    <path class="st16" d="M540.04,325.85c1.21,4.85,2.2,9.55,1.12,14.58-.85.06-3.81.51-4.48.75l-6.35-11.96c3.18-1.93,5.78-3.14,9.72-3.36Z"/>
    <path class="st2" d="M481.37,352.76c-.78,2.12-.06,2.72-2.81,2.98-5.93.56-11.69-3.12-4.72-7.7,1.14-.75,7.88-4.32,8.65-4.1,3.21.93,1.34,2.1.74,3.59-1.57-.04-9.36,3.47-9.72,4.3,2.22,1.72,5.26,1.59,7.85.93Z"/>
    <path class="st16" d="M474.27,343.04c-.37.42-.51,1.38-.95,1.85-1.38,1.47-4.52,2.34-5.21,4.87-1.52-1.31-2.5-3.34-2.4-5.36s1.85-4.49.74-6.43c-.78-1.37-2.19-.69-1.51-2.04,3.64,1.59,7.35,3.5,9.34,7.1Z"/>
    <path class="st2" d="M537.43,361.36l-10.08,14.78c-.59.86-1.39.16-2.25.16-.21-.22,2.86-4.52,3.19-5.21,1.7-3.54,2.44-7.71,2.79-11.6,2.07.78,4.11,1.64,6.35,1.87Z"/>
    <path class="st16" d="M549.01,352.01c.16-.18.06-1.31.93-1.12,3.54,3.23,8.08,5.71,12.53,7.48l-7.28,12.73c-.77.69-1.79-.8-2.44-1.15,1.33-1.45,6.4-9.17,5.94-10.59-.25-.77-8.72-5.72-9.68-7.35Z"/>
    <path class="st16" d="M534.81,342.29c-.9.25-5.2-.55-6.36-.93-5.49-1.78-3.54-8.02,0-11.03,1.36,4.36,3.46,8.43,6.35,11.96Z"/>
    <path class="st16" d="M478.01,326.22c-1.15.48-.71,1.56-.75,2.62-3.52.7-4.87-.13-5.22,4.3-.48,5.93,2.56,4.42,6.72,6.72.07.16-2.56,1.34-2.99,1.68-1.52-3.97-5.82-5.94-9.34-7.85,3.08-4.23,6.38-6.54,11.59-7.47Z"/>
    <path class="st15" d="M542.29,325.85c2.47,4.52,2.07,9.64,1.49,14.58-.7-.09-1.88-.05-2.62,0,1.08-5.02.09-9.72-1.12-14.58.72-.04,1.52-.03,2.24,0Z"/>
    <path class="st1" d="M538.18,344.53c-.12-.9,0-.59.52-.78,2.43-.9,8.57-.41,9.77,2.3.51,1.16-1.68,4.23-2.58,4.07-.62-.11-5.71-5.82-7.71-5.58Z"/>
    <path class="st6" d="M482.12,365.46c-.06-2.72.3-4.17.75-6.73,7.75-.65,6.32,8.98-.75,6.73Z"/>
    <path class="st15" d="M530.33,329.21l6.35,11.96c-.17.06-.67.79-1.87,1.12-2.9-3.53-5-7.6-6.35-11.96.97-.83,1.1-.66,1.87-1.12Z"/>
    <path class="st15" d="M475.76,341.55c-.19.15-1.28,1.25-1.49,1.49-2-3.6-5.7-5.51-9.34-7.1.47-.94.91-1.44,1.49-2.24,3.53,1.91,7.82,3.88,9.34,7.85Z"/>
    <path class="st4" d="M483.24,347.53c-.69,1.71-1.23,3.51-1.87,5.23-2.59.65-5.63.78-7.85-.93.35-.83,8.14-4.34,9.72-4.3Z"/>
    <path class="st13" d="M480.25,325.85c2-.07,4.32.07,6.23.68.56.18,1.23.17,1.25,1,0,.42-6.91.49-7.48.56v-2.24Z"/>
    <path class="st16" d="M479.5,358.36l-.56,5.23-4.3-4.85c1.64,0,3.28.14,4.86-.38Z"/>
    <path class="st15" d="M479.5,334.82l-.37,2.62c-.22.24-4.16-1.03-4.48-1.69-.38-.78.66-.49.94-.54,1.29-.23,2.59-.49,3.92-.38Z"/>
    <path class="st15" d="M480.25,325.85v2.24c-.74.1-2.1.57-2.99.75.04-1.06-.4-2.14.75-2.62.84-.15,1.22-.34,2.24-.37Z"/>
    <path class="st11" d="M511.18,366.3c1.72,1.71-.85,7.77-2,9.6-3.96,6.3-13,5.93-17.28.15-1.27-1.71-4.61-8.45-2.96-10.12,1.2-1.21,2.51.53,3.82,1.04,4.46,1.75,10.05,1.33,14.52-.09,1.08-.34,2.54-1.95,3.91-.58ZM507.53,373.32c-4.21-1.56-9.42-.63-10.84,4.1,4.41,1.49,9.15.62,10.84-4.1Z"/>
    <path class="st6" d="M516.41,361.81c5.43-.78,7.89,5.99,2.64,7.51-6.71,1.95-8.8-6.63-2.64-7.51Z"/>
    <path class="st4" d="M541.17,353.88c.79,1.05-3,1.84-3.56,1.87-4.28.24-8.98-2.92-8.77-7.48,1.28-1.27,10.39,5.14,12.33,5.61Z"/>
    <path class="st11" d="M512.66,355.46c2.65-.55,7.19,1.17,4.6,3.86-1.09,1.13-2.61-.19-3.94-.2-1.05,0-2.99,1.03-3.76.41-1.88-1.5,1.61-3.76,3.09-4.07Z"/>
    <path class="st11" d="M504.07,363.69c.73.73.28,1.67-.27,2.34-2.77,3.34-11.69.19-9.56-2.83,1.27-1.79,3.4,1.64,4.59,1.83,1.89.29,3.93-2.66,5.25-1.34Z"/>
    <path class="st11" d="M489.67,355.05c-.28.46-.13,1.06.33,1.34s1.06.13,1.34-.33.13-1.06-.33-1.34-1.06-.13-1.34.33c.16-.41-.25-.97.85-1.18,2.88-.54,5.34,1.53,4.11,4.48s-6.99,1.41-5.71-2.73c.14-.45.6-.51.75-.57Z"/>
    <path class="st4" d="M507.53,373.32c-1.68,4.73-6.43,5.59-10.84,4.1,1.42-4.73,6.63-5.66,10.84-4.1Z"/>
    <path class="st8" d="M494.08,408.07l18.69.37c.25.25-.12,6.39-.74,6.92-.38.32-7.41,3.07-8.08,3.15-1.64.18-9.86-3.14-9.86-3.9v-6.54Z"/>
    <path class="st11" d="M492.3,405.92c1.01-1,3.01-.09,4.19-.07,2.96.05,16.79-.5,18.27.42.15.1.34.13.45.3.5.75-.61,8.2-.76,9.74-.4.86-9.64,4.75-10.88,4.84-1.57.11-9.94-3.69-11.18-4.84-.42-.39-.7-.85-.86-1.4.46-1.74-.11-8.11.77-8.98ZM494.08,408.07v6.54c0,.76,8.22,4.08,9.86,3.9.67-.07,7.7-2.83,8.08-3.15.62-.53.99-6.67.74-6.92l-18.69-.37Z"/>
    <path class="st14" d="M479.13,398.35c.71-.97,1.64-1.5.7-2.75-6.29-6.84-11.74-14.37-17.14-21.92,1.7-1.47,3.58-2.81,5.24-4.29,1.06-.95,5.77-6.44,6.21-6.52.7-.12,4.65,5.07,5.16,5.97,1.29,2.31,1.72,5.15,3.27,7.57,1.32,2.08,3.06,3.05,4.35,4.85-1.21,4.77-3.2,9.35-4.68,14.01-1.05,3.3-1.43,7.45-3.02,10.43-.18.34-.69,1.29-1.19,1.05.14-2.12,2.06-6.7,1.11-8.41Z"/>
    <path class="st2" d="M548.63,390.13c1.98,3.45,2.59,7.29,1.2,11.09-.33.91-2.31,3.63-2.25,3.97.07.45,1.6,2.16,1.96,2.91,1.93,4,1.29,8.52-1.34,12.05-.63.85-3.2,2.89-3.26,3.11-.14.5.43,1.59.33,2.52-.29,2.66-3.5,4.42-5.79,5.07,5.89-9.91,2.87-19.95.38-30.31.14-.62,7.27-9.66,7.84-10.05.31-.21.4-.51.94-.36Z"/>
    <circle class="st8" cx="487.73" cy="399.31" r="1.61"/>
    <path class="st2" d="M506.41,385.65c-.51.39-2.26,2.95-2.45,3-.8.24-2.57-2.15-2.78-3h5.23Z"/>
    <path class="st8" d="M520.5,398.03c2.3-.64,3.51,3.76.32,3.32-1.76-.24-1.78-2.91-.32-3.32Z"/>
    <path class="st8" d="M530.7,451.42c.43-.08,4.06-1.55,4.12-.93-.21,3.92-.87,3.8-4.12,4.67.27-1.11.85-2.78,0-3.74Z"/>
    <path class="st8" d="M498.19,451.79c.06,0,.29-.31.6-.34,1.55-.13,3.08-.37,4.63-.41-.47,4-.47,3.91-4.11,4.48-.27-1.49.86-4.26-1.12-3.74Z"/>
    <path class="st14" d="M498.56,385.28l-3.16,3.38c-.26.3-1.09.52-1.32.35-.22-.15-1.28-5.02-1.12-5.23l5.6,1.5Z"/>
    <path class="st16" d="M515.38,314.26c-1.79-.14-3.58.14-5.4-.39-2.71,1.12-8.78.51-11.04,1.7-.61.32-3.31,4.59-4.13,5.6-.62.76-2.08,1.18-1.86,2.8-.19.02-.51.31-.75.37,1-1.85,4.67-9.4,6.08-10.2,1.76-1,10.31-.78,12.8-.65,1.24.06,3.11.35,4.28.76Z"/>
    <path class="st17" d="M499.68,439.83c1.38.39,3.04.36,4.45.78.26.3-.97,7.37-1.27,7.82-.56.84-2.69.63-3.55.74.42-3.09,1.21-6.24.37-9.34Z"/>
    <path class="st8" d="M488.83,394.97l-3.73-.18,3.75-12.51c.71.44,2.19.71,2.22,1.65.08,3.1-2.09,7.78-2.24,11.04Z"/>
    <path class="st8" d="M524.3,395.31c-.4.64-2.78.23-3.5.04-.47-.12-.64.31-.54-.53.48-4.38,3.3-10.18,5.96-13.66l-1.92,14.15Z"/>
    <path class="st1" d="M526.59,327.72c-.61-.09-1.38-.63-1.87-.75l-2.62-11.59c2.92.85,3.87,1.11,5.14,4.01.38.87,2.03,5.64,1.97,6.25-.14,1.4-2.11,1.58-2.62,2.06Z"/>
    <path class="st14" d="M524.72,378.17c.52.71-3.84,6.28-4.66,7.11-1.52,1.54-3.81,2.75-5.27,4.46-.48.11-3.65-3.96-4.27-4.66,4.69-1.57,9.32-3.32,12.72-7.11.26-.19,1.44.15,1.48.21Z"/>
    <path class="st5" d="M530.7,451.42c.85.96.27,2.63,0,3.74-3.7.99-9.75,1.23-13.47.2-2.25-.62-1.29-2.16-2.23-3.94,5.13,1.1,10.54.99,15.7,0Z"/>
    <path class="st5" d="M498.19,451.79c1.99-.52.85,2.25,1.12,3.74-4.39.69-9.16.13-13.53-.87-2.28-.52-1.61-1.9-2.16-3.99,4.79.88,9.69,1.44,14.57,1.12Z"/>
    <path class="st18" d="M462.68,373.69c5.4,7.54,10.85,15.07,17.14,21.92.95,1.25.02,1.78-.7,2.75-6.21-7.59-12.99-14.85-17.94-23.36-.01-1.13,1.2-1.04,1.5-1.3Z"/>
    <path class="st10" d="M532.56,463.37c-2.09.91-12.3,1.48-13.01-.61-.13-.38-.59-4.44-.44-4.61,2.26.44,4.62.49,6.93.39,1.02-.05,4.7-.88,5.17-.74.86.26,1.03,4.52,1.35,5.57Z"/>
    <path class="st10" d="M499.31,458.15c-.21,1.79.79,3.41-1.12,4.3s-13.04,1.49-14.2.56l3.24-5.54c4.06.17,8,1.03,12.09.69Z"/>
    <path class="st2" d="M475.76,422.27c-3.96-2.84-5.34-7.77-4-12.41.34-1.18,1.72-2.91,1.77-3.88.05-1.02-1.23-2.12-1.68-3.14-1.35-3.04-1.07-6.13-.56-9.34.73-.19.72.3,1.05.63.88.87,4.38,4.97,4.54,5.94.39,2.3-1.65,8.65-1.87,11.55-.27,3.52.09,7.22.76,10.66Z"/>
    <path class="st17" d="M536.31,413.67c1.23.19,2.79.01,4.09.39.15,3.9.14,7.58-1.19,11.3-.62,1.73-2.51,4.24-2.82,5.77s.08,3.24-.09,4.77c-.29,2.66-.96,9.34-1.96,11.5-.51,1.11-1.48,1.12-2.53,1.4,1.26-4.49,2.15-8.93,1.86-13.63-.08-1.26-.89-3.41-.75-4.47.1-.73,1.24-1.65,1.65-2.49,2.25-4.64,2.35-9.49,1.72-14.53Z"/>
    <path class="st10" d="M524.72,326.97c.49.12,1.26.66,1.87.75-.5.47-1.39,2.87-2.81,2.99-5.68-1.09-11.42-2.09-17.19-2.61-3.97-.36-8.75-.71-12.7-.78-1.27-.02-2.32.36-3.55.4-.29-.26,1.64-2.95,1.87-3.36.24-.07.55-.35.75-.37,3.88-.38,11.02.39,15.13.75,5.02.44,11.82,1.05,16.63,2.24Z"/>
    <path class="st18" d="M552.38,372.94c2.12,1.37,2.86.68,1.56,3.24-4.12,8.14-11.44,15.83-16.72,23.28-.64,1.59,2.53,11.53,2.09,11.97-2.22.11-4.07-.14-5.98-1.12l.02-4.69c-.21-1.68-.88-5-.2-6.52.49-1.08,5.02-5.2,6.15-6.56,4.92-5.9,9.93-12.62,13.09-19.61Z"/>
    <path class="st14" d="M519.49,389.01l-1.72,6.37-26.68-.4,1.12-4.85c.65.01.46.98,1.11,1.32,2.6,1.34,4.43-3.14,5.87-3.52,1.55-.41,2.36,3.69,4.76,3.34,1.63-.24,3.87-4.64,4.83-4.47,1.43.25,3.51,5.28,6.04,5.24,1.33-.02,4.25-3.48,4.66-3.02Z"/>
    <path class="st13" d="M515.38,314.26c2.4.19,4.41.45,6.73,1.12l2.62,11.59c-4.81-1.19-11.61-1.8-16.63-2.24-4.12-.36-11.25-1.13-15.13-.75-.22-1.62,1.24-2.04,1.86-2.8.82-1.01,3.53-5.28,4.13-5.6,2.26-1.19,8.32-.58,11.04-1.7,1.82.53,3.61.24,5.4.39Z"/>
    <path class="st14" d="M552.38,372.94c-3.16,6.99-8.17,13.71-13.09,19.61-1.13,1.36-5.66,5.48-6.15,6.56-.69,1.51-.01,4.83.2,6.52l-.02,4.69c-2.22-1.14-2.84-2.4-3.8-4.6-.88-2.02-2.88-8.51-3.11-10.53-.16-1.42,2.78-15.99,3.48-17.63,1.09-2.55,5.38-8.3,7.24-10.7.87-1.12,1.62-2.36,2.79-3.22,2.63,2.22,5.21,4.46,8.02,6.47,1.44,1.03,2.97,1.89,4.44,2.84Z"/>
    <path class="st8" d="M499.31,449.18c-5.03.68-10.88.67-15.69-1.03-.94-4.66-2.45-9.73-2.63-14.5-.06-1.62,1.03-2.76.97-3.18-.15-.9-1.59-2.59-2.03-3.58-1.81-4.08-2.96-8.93-2.68-13.43s1.15-2.68,3.2-5.02c2.2-2.49,3.11-10.8,3.54-11.22,1.37-1.33.05,2.22.04,2.43-.04,5.36,9.49,4.29,7.05-2.05,8.88-.23,17.65.64,26.53.37-.96,3.8,2.21,7.13,5.74,4.81,2.11-1.38,1.09-3.17,1.17-5.18,1.23,2.75,1.43,5.8,2.62,8.59,2,4.67,4.05,6.71,9.15,7.48.63,5.04.52,9.89-1.72,14.53-.41.84-1.55,1.76-1.65,2.49-.14,1.06.67,3.21.75,4.47.29,4.7-.6,9.14-1.86,13.63-3.27.88-13.28,1.99-16.06.55-2.12-1.1-3.32-8.7-4.22-10.73-1.04-2.35-2.09-.03-3.1.1-1.51.2-6.68-.85-8.39-1.32-1.44-.39-3.36-2.09-4.51-.77s3.13,2.91,4.14,3.2c.83,3.1.04,6.25-.37,9.34ZM492.3,405.92c-.87.87-.31,7.24-.77,8.98.15.55.44,1.01.86,1.4,1.23,1.15,9.61,4.95,11.18,4.84,1.24-.09,10.48-3.99,10.88-4.84.15-1.53,1.26-8.99.76-9.74-.11-.16-.3-.2-.45-.3-1.48-.92-15.31-.37-18.27-.42-1.18-.02-3.19-.93-4.19.07Z"/>
  </g>
  <g>
    <path class="st8" d="M504.49,223.5c.28.45-.34,6.07-.66,6.52-.53.75-8.45,3.54-9.47,3.45-1.14-.1-8.16-3.81-8.43-4.67-.53-1.73.78-4.53.3-6.47l18.26,1.18Z"/>
    <circle class="st0" cx="503.96" cy="171.31" r=".97"/>
    <path class="st11" d="M482.87,168.14v1.68c1.22.72,1.69-.52,1.49-1.68h-1.49c1.83-2.11,5.01-.95,5.25,1.68.49,5.4-6.86,6.17-6.01-.4.14-1.13.35-.81.77-1.28Z"/>
    <path class="st11" d="M503.13,170.81c-.28.46-.13,1.06.33,1.34s1.06.13,1.34-.33.13-1.06-.33-1.34-1.06-.13-1.34.33c1.99-3.19,5.76-1.5,5.55,2.39-.32,5.92-9.14,2.88-5.55-2.39Z"/>
    <path class="st6" d="M508.92,176.45c7.09-1.46,8.77,6.82,2.81,7.68-5.88.85-7.78-6.66-2.81-7.68Z"/>
    <path class="st4" d="M524.95,162.55c.79-.23,9.97,4.88,10.95,5.81,2.39,2.25-2.79,2.19-4.27,2.03-2.09-.23-4.73-1.69-5.95-3.39-.57-.8-2.27-3.99-.73-4.44Z"/>
    <g>
      <path class="st10" d="M444.7,205.77c.11.45-.49,1.97-.8,2.26-.9.85-4.29.41-5.59.35-.36-.02-1.25-.5-1.41.31-.34,1.66,6.41,1.77,6.71,2.07.24.25-.04,2.43-.46,2.88-1.23,1.31-4.78.21-4.77,1.77,0,2.9,5.3-.47,5.28,2.25-.02,3-8.77,4.17-9.04.37-.06-.89.49-1.93.35-2.54-.29-1.28-2.72-1.24-1.64-4.76.21-.69,1.21-1.46,1.26-2.1.05-.54-.89-1.27-1.04-2.21-1.02-6.5,10.72-2.38,11.15-.65Z"/>
      <path class="st16" d="M470.91,155.81c-1.29,1.01-5.09,3.92-5.98,4.86-1.8-1.56-4.86-.69-6.73.37.16-5.06,1.27-7.43,3.74-11.59,3.5,1.22,6.69,3.44,8.97,6.36Z"/>
      <path class="st15" d="M468.29,170.76l-2.62,5.23c-1.19-.69-1.07-.46-2.24-1.5.54-1.53,1.2-3.58,2.62-4.48.1.06,1.89.64,2.24.75Z"/>
      <path class="st2" d="M462.63,208.18c1.7,5.27,1.69,10.53,1.55,16.02-4.26.17-8.31-1.47-12.33-2.62-.27-.31,2.11-5.33,2.43-6.35.83-2.68,1.15-5.49,1.68-8.23l6.67,1.18Z"/>
      <path class="st16" d="M463.6,167.03c.19.65,1.91,2.67,2.45,2.98-1.42.9-2.08,2.95-2.62,4.48-3.39-3.01-4.9-6.66-5.23-11.21l5.23-.37c-.18.77-.06,3.31.17,4.12Z"/>
      <path class="st15" d="M469.79,150.57c.9,1.01,1.53,3.08,2.98,3.74-.48.34-1.31,1.06-1.86,1.5-2.28-2.92-5.47-5.14-8.97-6.36.66-1.12.67-1.18,1.49-2.24l5.98,2.99c.16.09.26.24.38.37Z"/>
      <path class="st2" d="M471.47,233.91c.24.13.24.25,0,.38v-.38Z"/>
      <path class="st16" d="M475.02,171.13c-.87,2.12-1.37,4.43-1.5,6.72-2.44.08-5.02-.19-7.24-1.17-.35-.15-.49-.63-.61-.69l2.62-5.23c2.17.64,4.52.95,6.73.37Z"/>
      <path class="st14" d="M479.5,199.53c-3.07,8.11-7.16,15.87-8.03,24.67-.49.86-3.97,1.02-5.05,1.12.76-6.6-.1-13.03-1.84-19.4,4.99-2.1,9.58-5.13,14.92-6.39Z"/>
      <path class="st1" d="M469.79,150.57l5.6,2.25c-.47.77-1.84.96-2.62,1.49-1.45-.66-2.08-2.73-2.98-3.74Z"/>
      <path class="st2" d="M471.28,227.19v6.35c-.6-.07-.79-1.37-.93-1.87-.5-1.76-1.56-4.32.93-4.48Z"/>
      <path class="st10" d="M448.48,199.91c-.96-2.78,1.46-8.23-2.09-8.6-1.37-.14-1.11.35-1.64.75-1.68,1.24-2.01,2.97-1.87,5.04.03.52,1.07,5.1,1.21,5.34.1.17,1.1.55,1.58,1.22,2.2,3.11-.82,6.5.57,10.07-1.97.93,1.19,4.71-1.12,6.35,1.22-.61,2.61.15,3.54.03,1.11-.15,2.6-4.24,2.93-5.33.53-1.78,1.89-7.65.97-9.06-.43-.65-1.05-.53-1.09-.58-.41-.59-2.79-4.67-2.99-5.23Z"/>
      <path class="st15" d="M464.93,160.67c-.11.11-1.47,2.11-1.5,2.24l-5.23.37c-.05-.71-.02-1.52,0-2.24,1.87-1.06,4.93-1.93,6.73-.37Z"/>
      <path class="st16" d="M484.89,140.08c.44.31.16.73.22,1.15-2.29-.25-4.52.19-6.73.38l.37-2.62c1.05.02,5.48.62,6.14,1.09Z"/>
      <path class="st11" d="M499.68,181.76c1.99.97-.17,4.6-1.25,5.68-3.18,3.15-9.21,2.92-12.83.58-1.85-1.2-4.24-4.55-1.11-5.65.98.16,2.54,4.2,4.35,3.71-.39-1.13.57-3.01.41-3.86-.06-.28-4.2-2.21-2.85-4.37,1.21-1.92,2.5.59,3.43,1.08,2.88,1.51,4.62-2.41,6.15-.54,2.03,2.47-3.78,3.75-4.06,4.03-.41.41-.64,4.23-.46,4.41,1.41.1,2.89-.16,4.09-.96,1.45-.96,2.62-4.85,4.13-4.11Z"/>
      <path class="st6" d="M477.63,172.62c7.44-.93,6.05,8.71-.74,6.73.03-2.14.32-4.63.74-6.73Z"/>
      <path class="st10" d="M495.2,273.9c-.16,2.02.82,3.8-1.56,4.61-1.75.6-13.19,1.09-13.76.25.1-.9,2.29-5.37,2.86-5.56l10.03,1.08,2.43-.38Z"/>
      <path class="st17" d="M500.07,256.17l-1.2,8.32c-1.06.5-2.25.31-3.3.44-.11-3.23.32-6.54-.37-9.71.69.19,4.83.71,4.87.95Z"/>
      <path class="st8" d="M512.99,213.69c.96,0,1.73.77,1.73,1.72s-.77,1.73-1.73,1.73-1.72-.77-1.72-1.73.77-1.72,1.72-1.72Z"/>
      <path class="st14" d="M519.11,193.18c.57.76-5.77,7.21-6.72,8.04-.54.48-4.07,3.47-4.35,3.52-.76.14-3.52-4.3-4.24-5.02,2.11-.86,4.37-1.2,6.48-2.11,2.07-.89,6.23-4.36,7.33-4.65.58-.16.97.16,1.5.22Z"/>
      <path class="st2" d="M520.42,156.56c.91.97,1.8,1.28,2.8,2.05-3.01,2.44-6.88,2.56-10.06.35-.83-.58-2.4-2.79-3.2-2.79-.59,0-2.85,2.55-3.97,3.14-4.35,2.32-11.43,1.47-14.32-2.78-.61-.89-1.07-3.08-1.96-3.29-2.57-.6-.7,2.49-2.72,3.15-4.98,1.62-10.13-2.85-8.22-8.04,7.62.01,15.35.56,22.92,1.53,2.01.26,15.96,2.44,16.59,3.03.45.42,1.21,2.67,2.14,3.65Z"/>
      <path class="st16" d="M490.34,136.37c.13-.11.24-.26.37-.37-.05.16-.23.28-.37.37Z"/>
      <path class="st8" d="M480.62,212.28c.9,0,1.64.73,1.64,1.64s-.74,1.63-1.64,1.63-1.63-.73-1.63-1.63.73-1.64,1.63-1.64Z"/>
      <path class="st13" d="M519.49,129.65c.83,3.81,2.03,7.61,1.87,11.58-10.5-1.8-21.1-3.27-31.77-3.74.32-.59.04-.5.75-1.12.14-.09.32-.21.37-.37.04-.11-.04-.27,0-.37,2.69-.67,4.17-5.89,6.34-6.56,3.11.16,6.62-1.25,9.57-1.3,1.19-.03,2.95.27,4.27.38,2.91.24,5.82.64,8.6,1.5Z"/>
      <path class="st10" d="M522.85,141.98c-.16.78-1.95,2.99-2.42,3.03-10.79-1.95-21.66-4.07-32.7-3.78-.16-.14,1.63-3.3,1.86-3.74,10.67.47,21.27,1.94,31.77,3.74.25.04.97.71,1.49.75Z"/>
      <path class="st0" d="M514.26,275.4l-16.07-.38c.31-3.25.27-1,2.07-2.6,1.04-.93,1.65-4.41,1.7-5.81.03-1.03-.42-1.92-.38-2.93.06-2.06,1.38-4.73,1.09-6.97.61.1,1.51-.16,2.02-.02.31.08,2.34,5.03,2.78,5.88.55,1.07,1.61,2.11,2.08,3.15,1.14,2.52.94,6.11,3.23,7.99,1.1.89,1.32-.17,1.48,1.69Z"/>
      <path class="st8" d="M524.35,195.05l-5.55,9.58c-.62.87-1.99,6.57-2.35,6.81-.71.45-2.79-.3-3.69-.33.83-4.64,3.29-9.4,6.05-13.19,1.7-2.32,2.26-3.9,5.54-2.87Z"/>
      <path class="st0" d="M500.43,199.91l-3.51,3.34c-.51-.11-2.14-2.6-2.1-3.34h5.61Z"/>
      <path class="st8" d="M494.26,271.29l.19.37c-.12.01-.25,0-.37,0l.18-.37Z"/>
      <path class="st15" d="M478.75,138.99l-.37,2.62c-.96.08-2.07-.13-2.99,0l.37-2.25c1.12-.19,1.77-.4,2.99-.37Z"/>
      <path class="st16" d="M475.76,139.36l-.37,2.25c-1.13.15-3.17.47-4.2.84-2.84,1.03-2.41,5.25-1.78,7.75l-5.98-2.99c3.39-4.37,6.62-6.86,12.33-7.85Z"/>
      <path class="st14" d="M507.78,207.3c1.18.11,4.5-3.8,4.98-3.28-1.09,2.27-1.51,5-2.85,7.05l-25.55-1.45c.14-.68.94-4.68,1.13-4.86.67-.64.95,1.06,1.48,1.32,2.47,1.23,4.22-2.81,6.24-3.52,1.02-.08,2.18,3.79,3.99,3.62,1.82-.17,3.66-4.87,5.24-4.38.77.23,3.49,5.33,5.34,5.5Z"/>
      <path class="st5" d="M529.21,267.92c1.43-.31.49,2.53.74,3.74-3.75,1.08-7.48,1.44-11.41,1.14-3.39-.26-4.42-.49-5.4-3.95,5.46.4,10.73.38,16.07-.93Z"/>
      <path class="st17" d="M529.97,239.35c.08,1.83-.86,3.97-1.14,5.78l-2.17-13.77.68-1.18c.39.27,2.59,8.26,2.63,9.17Z"/>
      <path class="st2" d="M484.36,168.14c.2,1.16-.27,2.39-1.5,1.68v-1.68h1.5Z"/>
      <path class="st2" d="M478.93,193.19c.92,1.04,2.51,1.26,2.03,2.94-2.56.48-5.13,2.14-7.53,2.78-1.18.31-1.43-1.32-1.67-2.28-.97-3.89-.1-8.36,2.7-11.3,1.04,2.92,2.4,5.54,4.47,7.86Z"/>
      <path class="st1" d="M523.18,131.38c.71.88,3.3,8.52,2.99,9.05-.14.23-2.75,1.59-3.32,1.55-.52-.04-1.24-.71-1.49-.75.16-3.97-1.04-7.77-1.87-11.58,1.14.35,2.96.83,3.69,1.73Z"/>
      <path class="st14" d="M492.21,199.53c.38.36-.82,1.41-1.12,1.69-.31.29-3.12,2.68-3.36,2.42l-.75-5.23,5.23,1.12Z"/>
      <path class="st8" d="M499.31,266.8c-.09,3.78-.4,4.41-4.11,4.86l.37-4.48c1.25-.11,2.5-.18,3.74-.38Z"/>
      <path class="st8" d="M483.79,196.9c.89.17,1.31.75,1.31,1.65-.01.73-2.92,10.71-3.41,11.02-.23.15-2.29.12-2.76.05-.52-.07-.64.21-.54-.55.19-1.46,3.67-10.41,4.52-11.54.26-.35.35-.63.88-.63Z"/>
      <path class="st16" d="M508.04,127.45c.79.07,2.19.27,2.85.7-1.32-.11-3.08-.41-4.27-.38-2.95.05-6.46,1.46-9.57,1.3-2.17.67-3.65,5.89-6.34,6.56.61-1.47,4.3-7.65,5.58-8.06,1.1-.36,4.89-.57,6.21-.55,1.53,0,3.9.3,5.54.43Z"/>
      <path class="st12" d="M507.1,221.83c.19.58-.64,8.68-.96,9.38-.35.76-1.06.94-1.72,1.28-1.61.83-8.3,3.47-9.84,3.56-1.4.08-10.52-4.87-10.89-6.14s.28-9.43,1.28-9.78l21.6,1.11c.25.13.43.32.53.59ZM503.82,230.02c.33-.45.95-6.06.67-6.52l-18.26-1.17c.48,1.94-.83,4.74-.3,6.47.26.86,7.29,4.56,8.42,4.67,1.02.09,8.94-2.7,9.47-3.45Z"/>
      <path class="st13" d="M518.48,147.29c1.17.53-.29,2.11-.12,3.29-11.69-2.82-23.66-4.07-35.68-4.49-3.43-.13-7.41.2-10.46.01-1.66-.1-1.09-.81-.19-1.69,11.66-1.51,23.26-1.14,34.88.62,2.5.38,9.64,1.38,11.57,2.26Z"/>
      <path class="st2" d="M480.62,158.43c.17.24-1.26,1.79-1.49,2.24-1.24-.08-9.41,2.95-9.72,3.36-1.17,1.56,6.55,2.6,7.48,1.49-.26.54-.61,2.3-.84,2.53-1.57,1.6-16.05-.65-6.75-6.94,1.06-.72,7.34-4,8.24-4.13,1.14-.16,1.95,1.39,3.08,1.45Z"/>
      <path class="st15" d="M475.77,148.33v2.25c-1.08.04-4.09-.72-4.49-1.69-.31-.77.51-.53.93-.56,1.17-.08,2.38.06,3.56,0Z"/>
      <path class="st4" d="M469.41,164.03c.31-.41,8.48-3.44,9.72-3.36-.79,1.54-1.49,3.27-2.24,4.85-.93,1.11-8.65.07-7.48-1.49Z"/>
      <path class="st8" d="M489.59,271.29c.6.02,1.55-.24,1.87.37-.87-.04-1.6-.35-1.87-.37Z"/>
      <path class="st5" d="M495.57,267.18l-.37,4.48c-.24.03-.5-.02-.75,0l-.19-.37-.18.37c-.85.04-1.77.04-2.62,0-.32-.61-1.27-.35-1.87-.37-1.89-.17-7.29-.35-8.72-1.19-1.12-.65-.76-2.6-1.37-3.67,4.86.5,9.47,1.38,14.4,1.11.6-.03,1.16-.32,1.67-.36Z"/>
      <path class="st10" d="M546.38,238.04c1.8,5.14-1.36,10.87-7.26,9.69-1.4-.27-1.47-2.24-2.62-2.24-2.03,0-1.06,4.93-3.44,3.85-2.84-1.29-.93-6.33-.44-8.65,4.7-.31,9.24-1.46,13.76-2.65Z"/>
      <path class="st7" d="M553.7,280.25c1.06,1.71-1.62,2.42-2.81,2.81-7.14,2.37-20.14,3.27-27.83,3.56-16.75.64-41.25.83-57.4-2.8-9.74-2.19-5.83-4.17,1.07-5.69,3.59-.79,7.27-1.09,10.9-1.61-1.69,4.12-.76,4.89,3.23,5.56,4.08.68,9.42.55,13.38-.72,4.04-1.31,3.57-2.48,3.95-6.34l16.07.38c.12,1.36.24,6.43.56,7.1.89,1.88,9.2,1.65,11.2,1.49,1.03-.09,2.47-.38,3.5-.62,5.24-1.19,4.76-2.1,4.55-7.23,3.19.54,18.16,1.75,19.63,4.11Z"/>
      <path class="st9" d="M529.21,248.86c.38,2.05.88,4.09.76,6.19l-1.14,10.63c-4.05,1.06-10.63,1.93-14.68,1.04-2.01-.43-5.56-7.47-6.57-9.5-.36-.73-1.18-3.47-1.53-3.71-.86-.6-2.3.61-3.56.62-1.97.01-5.54-.91-7.49-1.52-1.04-.32-4.1-2.54-4.63-.9-.64,1.96,3.46,3.12,4.83,3.51.69,3.17.26,6.48.37,9.71-2.46.32-4.73.54-7.28.37-1.56-.1-6.95-.71-8.16-1.18-.38-.15-.39-.24-.56-.56-.46-.87-1.25-5.48-1.45-6.77-.26-1.65-1.14-8.41-.79-9.53.19-.59,1.06-.88,1.06-1.57,0-.29-2.18-3.64-2.57-4.54-2.6-5.99-2.48-12.93-1.45-19.28.2-1.2,2.15-9.64,2.52-10,.03-.03.79-.14.74.18-3.26,7.02,8.12,7.71,6.36.19l25.41,1.12c.05,2.19-.56,4.03,1.6,5.31,2.45,1.44,5.5.35,5.81-2.61.08-.8-.85-2.4.25-2.32l1.87,8.21c1.14,3.59,2.08,6.21,5.79,7.66.69.27,2.17.26,2.62.57l-.68,1.18,2.17,13.77c-.36,2.4.02,1.83.38,3.73ZM506.14,231.21c.32-.7,1.15-8.8.96-9.38-.1-.27-.28-.46-.53-.59l-21.6-1.11c-1,.35-1.65,8.51-1.28,9.78s9.49,6.22,10.89,6.14c1.54-.09,8.23-2.73,9.84-3.56.66-.34,1.37-.52,1.72-1.28Z"/>
      <path class="st16" d="M536.12,141.59c1.9,4.32,1.79,8.88,1.31,13.47-1.26.11-3.69.68-4.86,1.12-.63-2.76-2.83-5.16-4.07-7.71-.77-1.59-1.21-3.37-1.91-5,2.92-1.64,4.94-2.15,8.22-2.61.08-.01.15-.02.22-.03.82-.09.75-.02,1.09.76Z"/>
      <path class="st16" d="M554.99,150.2c-3.82,1.27-7.18,4.11-9.34,7.48-1.12-.89-4.24-2.41-5.61-2.62.63-4.92.56-9.49-1.12-14.2,7.25.77,11.83,3.58,16.07,9.34Z"/>
      <path class="st2" d="M544.52,223.45c.21,1.82,2.27,10.52,1.72,11.58-.58,1.12-12.21,3.71-13.42,3.32s-2.62-9.23-3.61-10.78l15.31-4.12Z"/>
      <path class="st15" d="M554.99,150.2c.66.89.66,1.07,1.12,1.87-3.4,2.04-6.37,4.09-8.59,7.47-.08-.1-1.74-1.76-1.87-1.86,2.16-3.37,5.52-6.21,9.34-7.48Z"/>
      <path class="st10" d="M530.7,274.28c-.09,1.15,1.13,5.28.38,5.79-.3.21-5.41,1.52-5.61,1.31-.07-1.05-.2-3.64-1.62-3.67-1.9-.04-1.19,3.48-1.37,3.67-.17.17-4.51.04-4.81-.43-.38-.61.26-4.7-.42-5.92,4.47,1.02,9.03.08,13.45-.75Z"/>
      <path class="st8" d="M529.21,267.92c.63-.15,4.28-1.71,4.48-1.49-.13.88-.17,3.55-.55,4.12-.35.54-2.49.91-3.19,1.11-.25-1.21.69-4.05-.74-3.74Z"/>
      <path class="st16" d="M546.77,173.75c1.56,1.91,3.81,3.58,3.74,6.35-.11.05-.32.63-.84.83-4.17,1.62-10.34.49-12.32-3.93-.68-1.52,1.14-1.61,2.51-1.75,2.51-.26,4.64.36,6.91-1.5Z"/>
      <path class="st14" d="M532.54,199.38c6.91,4.73,10.42,13.1,12.69,20.85-.37,1.6-15.36,4.88-17.68,5.42-.64-.16-2.65-7.09-3.62-8.33-.54-.69-.93-.67-1.82-.6-.79.78,2.75,9.23,3.35,10.66-4.77-2.15-5.1-9.86-5.68-14.49-.08-.64-.61-1.26-.62-1.96,0-.94,1.54-4.67,2.02-5.78.63-1.42,4.49-8.68,5.9-8.54.98.09,4.47,2.1,5.46,2.77Z"/>
      <path class="st15" d="M553.12,178.6c-1.36,1.09-1.33.85-2.61,1.5.07-2.77-2.18-4.44-3.74-6.35.09-.08,1.44-1.77,1.5-1.87,2.27,1.81,3.88,3.98,4.85,6.72Z"/>
      <path class="st3" d="M531.4,160.9c3.57,1.7,13.83,9.08,5.66,11.54-4.22,1.27-8.99-.21-12.16-3.17-.78-.72-2.55-3.72-3.54-3.21-2.77,1.42,2.38,5.64,2.53,6.42.03.19-.27,2.76-.33,3.28-1.3,10.14-7.98,17.66-17.82,20.3-13.06,3.51-29.11-.79-28.85-16.71,6.79,1.98,8.18-7.66.74-6.73.42-2.07,4.15-13.05,5.84-13.37.47-.08,1.83.36,2.9.26.88-.09,2.82-1,3.04-.98.38.03,1.7,1.72,2.25,2.13,5.72,4.25,12.81,3.73,18.31-.66,3.36,3.64,9.27,4.4,13.52,1.86,1.27-.75,1.84-2.19,2.36-2.52.7-.44,4.59,1.1,5.55,1.56ZM531.63,170.38c1.49.17,6.66.22,4.27-2.02-.98-.92-10.16-6.04-10.95-5.81-1.54.46.16,3.64.73,4.44,1.22,1.7,3.86,3.16,5.95,3.39ZM511.73,184.13c5.97-.86,4.29-9.14-2.81-7.68-4.97,1.02-3.07,8.53,2.81,7.68ZM508.68,173.19c.21-3.88-3.56-5.57-5.55-2.38-3.59,5.26,5.23,8.3,5.55,2.38ZM498.43,187.44c1.08-1.08,3.24-4.71,1.25-5.68-1.51-.74-2.68,3.15-4.13,4.11-1.2.8-2.68,1.06-4.09.96-.18-.18.05-4,.46-4.41.28-.28,6.09-1.56,4.06-4.03-1.53-1.87-3.27,2.05-6.15.54-.93-.49-2.22-3-3.43-1.08-1.35,2.16,2.79,4.09,2.85,4.37.16.85-.8,2.73-.41,3.86-1.81.49-3.37-3.55-4.35-3.71-3.13,1.1-.74,4.45,1.11,5.65,3.62,2.34,9.65,2.57,12.83-.58ZM482.1,169.42c-.84,6.57,6.5,5.8,6.01.4-.24-2.62-3.41-3.79-5.24-1.68-.42.48-.63.15-.77,1.28Z"/>
      <path class="st15" d="M538.92,140.86c1.68,4.71,1.75,9.28,1.12,14.2-.64-.1-1.92-.06-2.61,0,.48-4.59.59-9.15-1.31-13.47-.34-.78-.27-.85-1.09-.76,1.91-.26,1.91-.18,3.89.03Z"/>
      <path class="st12" d="M557.39,147.99c8.74,11.25,6.99,31.3-8,35.85.24,1.06,1,1.8,1.41,2.88.92,2.5,1.1,5.83.79,8.47-.13,1.07-1.19,3.43-1.03,4.08.13.49,1.32,1.36,1.75,2.01,2.72,4.06,3.86,8.72,2.42,13.5-.35,1.17-2.34,4.11-2.35,4.36-.01.68,1.21,2.42,1.51,3.36,1.28,4,1.04,8.37-1.07,12.05-.57,1-2.83,3.21-2.98,3.74-.42,1.4.12,3.75-.17,5.44-.56,3.37-3.98,6.36-7.28,6.91-2.65.45-4.87-1.45-6.38,1.48l-.87,11.14c.84,2.36,1.38,5.99.14,8.3-.85,1.59-1.81.4-1.6,3.68.03.48.38.86.39.9.21,5.13.69,6.04-4.55,7.23-1.03.24-2.47.53-3.5.62-2,.16-10.31.39-11.2-1.49-.32-.67-.44-5.74-.56-7.1-.16-1.86-.38-.8-1.48-1.69-2.29-1.88-2.09-5.47-3.23-7.99-.47-1.04-1.53-2.08-2.08-3.15-.44-.85-2.47-5.8-2.78-5.88-.51-.14-1.41.12-2.02.02.29,2.24-1.03,4.91-1.09,6.97-.04,1.01.41,1.9.38,2.93-.05,1.4-.66,4.88-1.7,5.81-1.8,1.6-1.76-.65-2.07,2.6-.38,3.86.09,5.03-3.95,6.34-3.96,1.27-9.3,1.4-13.38.72-3.99-.67-4.92-1.44-3.23-5.56.03-.08.55-.27.7-.6.25-.58,1.51-3.11,1.51-3.33-.02-.25-1.04-.62-1.39-1.19-.36-.6-1.49-4.47-1.54-5.21-.4-5.54-1.98-11.04-2.28-16.75-.07-1.24.44-3.79.31-4.41-.09-.45-1.16-1.86-1.48-2.64-1.47-3.6-1.52-3.22-3.67-6.06-1.85-2.44-2.93-5.28-2.62-8.39-2.21.98-3.29-.72-4.75-1.05-1.79-.4-3.71-.38-5.8-.93-2.76-.72-6.33-2.75-8.79-3.17-4.56-.77-12.79,2.29-15.33-2.98-.64-1.31-.25-2.4-.54-3.57-.43-1.79-1.8-2.01-1.33-4.84.48-2.91.67-1.35.31-4.61-.67-6.22,5.66-7.8,10.44-5.76-1-3.56-1.57-8.25,1.48-11.04,3.06-2.8,7.74-1.13,8.25,2.99.25,2.08-.75,4.55-.29,6.28.14.54,3.97,5.11,4.4,5.31.47.2,5.39.92,5.74.85.46-.08,1.02-1.02,1.6-1.34,1.6-.9,7.17-3.07,7.15-5.03,0-.67-.88-2.12-1.01-3.1-.49-3.64.03-7.2,1.91-10.36,1.05-1.77,3-2.79,2.91-4.74-8.2.49-14.73-4.42-17.29-12.04-5.49-16.32,8.21-34.04,25.69-32.43,1.18.11,4.24,1.26,4.81,1.08,1.09-.36,4.81-10.52,9.29-12.04,5.32-1.79,22.67.3,27.59,3.28,3.17,1.92,3.79,6.93,4.86,10.28,10.98-3.1,21.88-.04,28.92,9.01ZM559.48,165.52c.25-5.79-.54-8.6-3.37-13.45-.46-.8-.46-.98-1.12-1.87-4.24-5.76-8.82-8.57-16.07-9.34-1.98-.21-1.98-.29-3.89-.03-.07.01-.14.02-.22.03-3.28.46-5.3.97-8.22,2.61-1.08.61-1.13.89-1.87,1.5-.2.17-.79.18-1.32.72-2.78,2.82-3.68,8.66.6,10.28.49.19,6.29,1.35,6.7,1.33,1.28-.06,1.61-1.02,1.87-1.12,1.17-.44,3.6-1.01,4.86-1.12.69-.06,1.97-.1,2.61,0,1.37.21,4.49,1.73,5.61,2.62.13.1,1.79,1.76,1.87,1.86,1.07,1.47,1.63,3.47,1.87,5.24.16,1.23.12,1.43,0,2.61-.16,1.5-.36,3.13-1.12,4.49-.06.1-1.41,1.79-1.5,1.87-2.27,1.86-4.4,1.24-6.91,1.5-1.37.14-3.19.23-2.51,1.75,1.98,4.42,8.15,5.55,12.32,3.93.52-.2.73-.78.84-.83,1.28-.65,1.25-.41,2.61-1.5,3.57-2.83,5.2-5.99,5.98-10.46.17-.98.33-1.42.38-2.62ZM549.2,234.66c1.73-.86,2.57-6.6,2.44-8.42-.22-3.21-1.76-5.08-2.97-7.77,4.5-3.89,4.51-10.47,1.4-15.33-.5-.78-2.74-2.99-2.87-3.5-.22-.84,1.25-3.59,1.41-4.81.34-2.61.06-5.5-1.02-7.89-1.59-3.54-2.46-2.11-5.69-2.9-2.44-.59-5.31-2.43-6.65-4.56-.58-.91-1.08-3.34-1.22-3.46-.3-.24-6.41-.44-7.44-1.9-.3,4.46-1.26,8.83-3.58,12.68-.38.63-3.39,4.25-3.15,4.51,7.65,2.31,15.02,4.97,20.12,11.46,2.49,3.17,8.51,14.48,7.9,18.23-.16.96-1.02,1.54-1.02,2.19,0,2.34,1.53,7.36,1.78,10.54.03.36-.19,1.29.56.93ZM539.12,247.73c5.9,1.18,9.06-4.55,7.26-9.69-4.52,1.19-9.06,2.34-13.76,2.65-.49,2.32-2.4,7.36.44,8.65,2.38,1.08,1.41-3.86,3.44-3.85,1.15,0,1.22,1.97,2.62,2.24ZM546.4,167.77c1.17-7.62-5.63-11.54-12.33-8.97l4.68,3.35c.82.99,1.99,1.83,2.79,2.81,1.72,2.13.69,3.42,4.86,2.81ZM546.24,235.03c.55-1.06-1.51-9.76-1.72-11.58l-15.31,4.12c.99,1.55,2.4,10.39,3.61,10.78s12.84-2.2,13.42-3.32ZM546.4,168.52c-.59.09-3.23-.15-3.37-.01-.16.16.37,3.35-.74,3.93,2.11-.16,3.35-2.19,4.11-3.92ZM545.23,220.23c-2.27-7.75-5.78-16.12-12.69-20.85-.99-.67-4.48-2.68-5.46-2.77-1.41-.14-5.27,7.12-5.9,8.54-.48,1.11-2.02,4.84-2.02,5.78.01.7.54,1.32.62,1.96.58,4.63.91,12.34,5.68,14.49-.6-1.43-4.14-9.88-3.35-10.66.89-.07,1.28-.09,1.82.6.97,1.24,2.98,8.17,3.62,8.33,2.32-.54,17.31-3.82,17.68-5.42ZM537.06,172.44c8.17-2.46-2.09-9.84-5.66-11.54-.96-.46-4.85-2-5.55-1.56-.52.33-1.09,1.77-2.36,2.52-4.25,2.54-10.16,1.78-13.52-1.86-5.5,4.39-12.59,4.91-18.31.66-.55-.41-1.87-2.1-2.25-2.13-.22-.02-2.16.89-3.04.98-1.07.1-2.43-.34-2.9-.26-1.69.32-5.42,11.3-5.84,13.37-.42,2.1-.71,4.59-.74,6.73-.26,15.92,15.79,20.22,28.85,16.71,9.84-2.64,16.52-10.16,17.82-20.3.06-.52.36-3.09.33-3.28-.15-.78-5.3-5-2.53-6.42.99-.51,2.76,2.49,3.54,3.21,3.17,2.96,7.94,4.44,12.16,3.17ZM533.69,266.43c-.2-.22-3.85,1.34-4.48,1.49-5.34,1.31-10.61,1.33-16.07.93.98,3.46,2.01,3.69,5.4,3.95,3.93.3,7.66-.06,11.41-1.14.7-.2,2.84-.57,3.19-1.11.38-.57.42-3.24.55-4.12ZM532.51,264.5c.54-4.03.61-8.17.75-12.21-2.03-.54-3.03-1.7-4.05-3.43-.36-1.9-.74-1.33-.38-3.73.28-1.81,1.22-3.95,1.14-5.78-.04-.91-2.24-8.9-2.63-9.17-.45-.31-1.93-.3-2.62-.57-3.71-1.45-4.65-4.07-5.79-7.66l-1.87-8.21c-1.1-.08-.17,1.52-.25,2.32-.31,2.96-3.36,4.05-5.81,2.61-2.16-1.28-1.55-3.12-1.6-5.31l-25.41-1.12c1.76,7.52-9.62,6.83-6.36-.19.05-.32-.71-.21-.74-.18-.37.36-2.32,8.8-2.52,10-1.03,6.35-1.15,13.29,1.45,19.28.39.9,2.57,4.25,2.57,4.54,0,.69-.87.98-1.06,1.57-.35,1.12.53,7.88.79,9.53.2,1.29.99,5.9,1.45,6.77.17.32.18.41.56.56,1.21.47,6.6,1.08,8.16,1.18,2.55.17,4.82-.05,7.28-.37,1.05-.13,2.24.06,3.3-.44l1.2-8.32c-.04-.24-4.18-.76-4.87-.95-1.37-.39-5.47-1.55-4.83-3.51.53-1.64,3.59.58,4.63.9,1.95.61,5.52,1.53,7.49,1.52,1.26-.01,2.7-1.22,3.56-.62.35.24,1.17,2.98,1.53,3.71,1.01,2.03,4.56,9.07,6.57,9.5,4.05.89,10.63.02,14.68-1.04,1.25-.32,2.48-.73,3.68-1.18ZM531.08,280.07c.75-.51-.47-4.64-.38-5.79-4.42.83-8.98,1.77-13.45.75.68,1.22.04,5.31.42,5.92.3.47,4.64.6,4.81.43.18-.19-.53-3.71,1.37-3.67,1.42.03,1.55,2.62,1.62,3.67.2.21,5.31-1.1,5.61-1.31ZM526.17,140.43c.31-.53-2.28-8.17-2.99-9.05-.73-.9-2.55-1.38-3.69-1.73-2.78-.86-5.69-1.26-8.6-1.5-.66-.43-2.06-.63-2.85-.7-1.64-.13-4.01-.42-5.54-.43-1.32-.02-5.11.19-6.21.55-1.28.41-4.97,6.59-5.58,8.06-.04.1.04.26,0,.37-.13.11-.24.26-.37.37-.71.62-.43.53-.75,1.12-.23.44-2.02,3.6-1.86,3.74,11.04-.29,21.91,1.83,32.7,3.78.47-.04,2.26-2.25,2.42-3.03.57.04,3.18-1.32,3.32-1.55ZM518.8,204.63l5.55-9.58c-3.28-1.03-3.84.55-5.54,2.87-2.76,3.79-5.22,8.55-6.05,13.19.9.03,2.98.78,3.69.33.36-.24,1.73-5.94,2.35-6.81ZM523.22,158.61c-1-.77-1.89-1.08-2.8-2.05-.93-.98-1.69-3.23-2.14-3.65-.63-.59-14.58-2.77-16.59-3.03-7.57-.97-15.3-1.52-22.92-1.53-1.91,5.19,3.24,9.66,8.22,8.04,2.02-.66.15-3.75,2.72-3.15.89.21,1.35,2.4,1.96,3.29,2.89,4.25,9.97,5.1,14.32,2.78,1.12-.59,3.38-3.14,3.97-3.14.8,0,2.37,2.21,3.2,2.79,3.18,2.21,7.05,2.09,10.06-.35ZM512.39,201.22c.95-.83,7.29-7.28,6.72-8.04-.53-.06-.92-.38-1.5-.22-1.1.29-5.26,3.76-7.33,4.65-2.11.91-4.37,1.25-6.48,2.11.72.72,3.48,5.16,4.24,5.02.28-.05,3.81-3.04,4.35-3.52ZM518.36,150.58c-.17-1.18,1.29-2.76.12-3.29-1.93-.88-9.07-1.88-11.57-2.26-11.62-1.76-23.22-2.13-34.88-.62-.9.88-1.47,1.59.19,1.69,3.05.19,7.03-.14,10.46-.01,12.02.42,23.99,1.67,35.68,4.49ZM514.72,215.41c0-.95-.77-1.72-1.73-1.72s-1.72.77-1.72,1.72.77,1.73,1.72,1.73,1.73-.77,1.73-1.73ZM512.76,204.02c-.48-.52-3.8,3.39-4.98,3.28-1.85-.17-4.57-5.27-5.34-5.5-1.58-.49-3.42,4.21-5.24,4.38-1.81.17-2.97-3.7-3.99-3.62-2.02.71-3.77,4.75-6.24,3.52-.53-.26-.81-1.96-1.48-1.32-.19.18-.99,4.18-1.13,4.86l25.55,1.45c1.34-2.05,1.76-4.78,2.85-7.05ZM496.92,203.25l3.51-3.34h-5.61c-.04.74,1.59,3.23,2.1,3.34ZM495.2,271.66c3.71-.45,4.02-1.08,4.11-4.86-1.24.2-2.49.27-3.74.38-.51.04-1.07.33-1.67.36-4.93.27-9.54-.61-14.4-1.11.61,1.07.25,3.02,1.37,3.67,1.43.84,6.83,1.02,8.72,1.19.27.02,1,.33,1.87.37.85.04,1.77.04,2.62,0,.12,0,.25.01.37,0,.25-.02.51.03.75,0ZM493.64,278.51c2.38-.81,1.4-2.59,1.56-4.61l-2.43.38-10.03-1.08c-.57.19-2.76,4.66-2.86,5.56.57.84,12.01.35,13.76-.25ZM491.09,201.22c.3-.28,1.5-1.33,1.12-1.69l-5.23-1.12.75,5.23c.24.26,3.05-2.13,3.36-2.42ZM485.11,141.23c-.06-.42.22-.84-.22-1.15-.66-.47-5.09-1.07-6.14-1.09-1.22-.03-1.87.18-2.99.37-5.71.99-8.94,3.48-12.33,7.85-.82,1.06-.83,1.12-1.49,2.24-2.47,4.16-3.58,6.53-3.74,11.59-.02.72-.05,1.53,0,2.24.33,4.55,1.84,8.2,5.23,11.21,1.17,1.04,1.05.81,2.24,1.5.12.06.26.54.61.69,2.22.98,4.8,1.25,7.24,1.17.13-2.29.63-4.6,1.5-6.72-2.21.58-4.56.27-6.73-.37-.35-.11-2.14-.69-2.24-.75-.54-.31-2.26-2.33-2.45-2.98-.23-.81-.35-3.35-.17-4.12.03-.13,1.39-2.13,1.5-2.24.89-.94,4.69-3.85,5.98-4.86.55-.44,1.38-1.16,1.86-1.5.78-.53,2.15-.72,2.62-1.49l-5.6-2.25c-.12-.13-.22-.28-.38-.37-.63-2.5-1.06-6.72,1.78-7.75,1.03-.37,3.07-.69,4.2-.84.92-.13,2.03.08,2.99,0,2.21-.19,4.44-.63,6.73-.38ZM485.1,198.55c0-.9-.42-1.48-1.31-1.65-.53,0-.62.28-.88.63-.85,1.13-4.33,10.08-4.52,11.54-.1.76.02.48.54.55.47.07,2.53.1,2.76-.05.49-.31,3.4-10.29,3.41-11.02ZM480.96,196.13c.48-1.68-1.11-1.9-2.03-2.94-2.07-2.32-3.43-4.94-4.47-7.86-2.8,2.94-3.67,7.41-2.7,11.3.24.96.49,2.59,1.67,2.28,2.4-.64,4.97-2.3,7.53-2.78ZM482.26,213.92c0-.91-.74-1.64-1.64-1.64s-1.63.73-1.63,1.64.73,1.63,1.63,1.63,1.64-.73,1.64-1.63ZM479.13,160.67c.23-.45,1.66-2,1.49-2.24-1.13-.06-1.94-1.61-3.08-1.45-.9.13-7.18,3.41-8.24,4.13-9.3,6.29,5.18,8.54,6.75,6.94.23-.23.58-1.99.84-2.53.75-1.58,1.45-3.31,2.24-4.85ZM475.76,150.58v-2.25c-1.17.06-2.38-.08-3.55,0-.42.03-1.24-.21-.93.56.4.97,3.41,1.73,4.48,1.69ZM471.47,224.2c.87-8.8,4.96-16.56,8.03-24.67-5.34,1.26-9.93,4.29-14.92,6.39,1.74,6.37,2.6,12.8,1.84,19.4,1.08-.1,4.56-.26,5.05-1.12ZM471.47,234.29c.24-.13.24-.25,0-.38v.38ZM471.28,233.54v-6.35c-2.49.16-1.43,2.72-.93,4.48.14.5.33,1.8.93,1.87ZM464.18,224.2c.14-5.49.15-10.75-1.55-16.02l-6.67-1.18c-.53,2.74-.85,5.55-1.68,8.23-.32,1.02-2.7,6.04-2.43,6.35,4.02,1.15,8.07,2.79,12.33,2.62ZM451.59,214.78c.53-1.78,1.89-7.65.97-9.06-.43-.65-1.05-.53-1.09-.58-.41-.59-2.79-4.67-2.99-5.23-.96-2.78,1.46-8.23-2.09-8.6-1.37-.14-1.11.35-1.64.75-1.68,1.24-2.01,2.97-1.87,5.04.03.52,1.07,5.1,1.21,5.34.1.17,1.1.55,1.58,1.22,2.2,3.11-.82,6.5.57,10.07-1.97.93,1.19,4.71-1.12,6.35,1.22-.61,2.61.15,3.54.03,1.11-.15,2.6-4.24,2.93-5.33ZM443.9,208.03c.31-.29.91-1.81.8-2.26-.43-1.73-12.17-5.85-11.15.65.15.94,1.09,1.67,1.04,2.21-.05.64-1.05,1.41-1.26,2.1-1.08,3.52,1.35,3.48,1.64,4.76.14.61-.41,1.65-.35,2.54.27,3.8,9.02,2.63,9.04-.37.02-2.72-5.27.65-5.28-2.25-.01-1.56,3.54-.46,4.77-1.77.42-.45.7-2.63.46-2.88-.3-.3-7.05-.41-6.71-2.07.16-.81,1.05-.33,1.41-.31,1.3.06,4.69.5,5.59-.35Z"/>
      <path class="st2" d="M551.64,226.24c.13,1.82-.71,7.56-2.44,8.42-.75.36-.53-.57-.56-.93-.25-3.18-1.78-8.2-1.78-10.54,0-.65.86-1.23,1.02-2.19.61-3.75-5.41-15.06-7.9-18.23-5.1-6.49-12.47-9.15-20.12-11.46-.24-.26,2.77-3.88,3.15-4.51,2.32-3.85,3.28-8.22,3.58-12.68,1.03,1.46,7.14,1.66,7.44,1.9.14.12.64,2.55,1.22,3.46,1.34,2.13,4.21,3.97,6.65,4.56,3.23.79,4.1-.64,5.69,2.9,1.08,2.39,1.36,5.28,1.02,7.89-.16,1.22-1.63,3.97-1.41,4.81.13.51,2.37,2.72,2.87,3.5,3.11,4.86,3.1,11.44-1.4,15.33,1.21,2.69,2.75,4.56,2.97,7.77Z"/>
      <path class="st13" d="M534.07,158.8c6.7-2.57,13.5,1.35,12.33,8.97-4.17.61-3.14-.68-4.86-2.81-.8-.98-1.97-1.82-2.79-2.81l-4.68-3.35Z"/>
      <path class="st16" d="M559.1,168.14c-.78,4.47-2.41,7.63-5.98,10.46-.97-2.74-2.58-4.91-4.85-6.72.76-1.36.96-2.99,1.12-4.49,3.55-.3,6.31-.65,9.71.75Z"/>
      <path class="st16" d="M530.7,157.3c-.41.02-6.21-1.14-6.7-1.33-4.28-1.62-3.38-7.46-.6-10.28.53-.54,1.12-.55,1.32-.72.44,4.67,3.8,8.4,5.98,12.33Z"/>
      <path class="st2" d="M543.03,168.51c.14-.14,2.78.1,3.37.01-.76,1.73-2,3.76-4.11,3.92,1.11-.58.58-3.77.74-3.93Z"/>
      <path class="st15" d="M532.57,156.18c-.26.1-.59,1.06-1.87,1.12-2.18-3.93-5.54-7.66-5.98-12.33.74-.61.79-.89,1.87-1.5.7,1.63,1.14,3.41,1.91,5,1.24,2.55,3.44,4.95,4.07,7.71Z"/>
      <path class="st17" d="M533.26,252.29c-.14,4.04-.21,8.18-.75,12.21-1.2.45-2.43.86-3.68,1.18l1.14-10.63c.12-2.1-.38-4.14-.76-6.19,1.02,1.73,2.02,2.89,4.05,3.43Z"/>
      <path class="st15" d="M559.48,165.52c-.05,1.2-.21,1.64-.38,2.62-3.4-1.4-6.16-1.05-9.71-.75.12-1.18.16-1.38,0-2.61,1.99.12,3.63-.57,5.79-.37,1.57.15,2.79.93,4.3,1.11Z"/>
      <path class="st16" d="M556.11,152.07c2.83,4.85,3.62,7.66,3.37,13.45-1.51-.18-2.73-.96-4.3-1.11-2.16-.2-3.8.49-5.79.37-.24-1.77-.8-3.77-1.87-5.24,2.22-3.38,5.19-5.43,8.59-7.47Z"/>
    </g>
  </g>
</svg>